<svg xmlns="http://www.w3.org/2000/svg" viewBox="0 0 500 500"><g id="freepik--background-simple--inject-148"><path d="M76.74,108.3C106,46,209.9,54.79,250,98.6s53.13,71.9,89.3,55.53,82.29-12,84.93,40-39.73,113.46-107,131.64S250,408.31,161,395.33c-48.53-7.08-49.63-59.59-42.78-103S42.8,180.56,76.74,108.3Z" style="fill:#1976D2"></path><path d="M76.74,108.3C106,46,209.9,54.79,250,98.6s53.13,71.9,89.3,55.53,82.29-12,84.93,40-39.73,113.46-107,131.64S250,408.31,161,395.33c-48.53-7.08-49.63-59.59-42.78-103S42.8,180.56,76.74,108.3Z" style="fill:#fff;opacity:0.9"></path></g><g id="freepik--Shadow--inject-148"><ellipse id="freepik--path--inject-148" cx="250" cy="416.24" rx="193.89" ry="11.32" style="fill:#f5f5f5"></ellipse></g><g id="freepik--plants-2--inject-148"><path d="M421.61,401.37a1.53,1.53,0,0,1,.24-2c-1.5-.84-5.2-.51-5.66-2.58-.23-1,.36-2.61-.67-2.86-.67-.16-1.16.58-1.6,1.11a3.72,3.72,0,0,1-4.66.74,3,3,0,0,0-1.85-4.18c-2.1-.52-2.57-.26-4.34-1.48-1.2-.82-1.42-2.19-3-2.62-1.16-.31-2.37.94-3.63.6-1.52-.41-1.47-1.38-2.32-1.93-1.15-.73-2.49.77-3.85.87s-2.28-1.06-2.89-2.19-1.15-2.42-2.29-3c-3-1.52-4.21,2-6.16,3.18-1.7,1.05-4.38.16-5.72,1.1-.22.15-1.86,2.38-1.34,2.34a22.65,22.65,0,0,1-4.06-.56c-1.37-.15-3,.25-3.53,1.51s.15,2.55-.19,3.77c-1.42.14-3.51,1.28-4.87.42s-.62-2.42-1.42-3.35c-2.76-3.18-1.9.08-4.85.31-1.19.09-1.55-1.74-2.5-1.76-2,0-1.08,1.9-2.34,2.42-2.48,1-4.61-2.63-6.85.2-1.2,1.5-1.58,3.88-3.72,3.74-3.2-.21-2.39,6.05-7.33,5.88.77,0-2.74,4.62-3.08,4.9-1.28,1.08-3.6.26-2.85,3.13a2.61,2.61,0,0,0,.38.84c1,1.42,3.25.95,4.95.95h97.89s-2.23-5.29-2.48-5.66C424.26,404.09,422.32,402.7,421.61,401.37Z" style="fill:#1976D2"></path><path d="M411.14,410.84H329.58c-1.23,0-2.76.25-3.88-.17a1.78,1.78,0,0,1,.91-.84c.75-.31,1.66-.4,2.12-1.06s.26-1.38.44-2.07a2.36,2.36,0,0,1,3.35-1.36,6,6,0,0,1,.62-3.68l1.62,1.91,2.58-3.37c.15-.21.35-.43.61-.41s.4.23.53.42l1,1.55a2.43,2.43,0,0,0,.95-1.75,2.69,2.69,0,0,1,1.3,2.16,2.38,2.38,0,0,1,1.36-.61c.92,0,2.66,4.2,3.59,1,.13-.44.15-.9.24-1.35a.58.58,0,0,1,.19-.38c.24-.18.61,0,.87-.11a1.05,1.05,0,0,0,.3-.36,1.63,1.63,0,0,1,1.6-.54,4.61,4.61,0,0,1,1.61.74,4.9,4.9,0,0,1,.36-1.61,1.71,1.71,0,0,1,1.22-1,4.12,4.12,0,0,1,1.29.19,1.24,1.24,0,0,0,1.22-.28c.15-.19.2-.46.36-.65a.78.78,0,0,1,1.26.14c.81-1,1.86-.52,2.9-.77a9.63,9.63,0,0,0,2.4-1.2c2.52-1.49,4.31-2.91,7.4-1.74a1.51,1.51,0,0,1,1.48-1.21c1.12,0,1.86,1.3,3,1.48s2.26-.58,3,.13c.21.19.33.47.55.66.64.53,1.78,0,2.36.63s.27,1.36.81,1.72c1.33.89,2.16-.14,3.15,1.66.65,1.19,1.26,2.44,3,1.63a2.73,2.73,0,0,1,.77-.32c.88-.12,1.37.93,1.92,1.63a3.14,3.14,0,0,0,2.14,1.17,2.38,2.38,0,0,1,1,.2c1,.61.1,2.67,1.18,3.21.49.24,1.23,0,1.5.5.16.29,0,.65,0,1a2.21,2.21,0,0,0,1.1,2.09,6.53,6.53,0,0,0,2.37.76c.45.08,1-1.61,1.39-1.89.87-.69,2.49-.76,3.54-1a.83.83,0,0,1,.71.06,1.61,1.61,0,0,1,.27.48,1.19,1.19,0,0,0,1.29.43c.48-.1.92-.34,1.39-.44a2.46,2.46,0,0,1,2.83,2.27A2.73,2.73,0,0,0,411.14,410.84Z" style="isolation:isolate;opacity:0.30000000000000004"></path><path d="M397.08,397.68s-2-3.14-.68-4,1.89,3.15,1.89,3.15.62-2.7,1.93-2.9,1,1.95-.51,3.61c0,0,2.58-1.35,3.4-.72s-.73,2.36-2.93,2.16c0,0,2.9,1,2.22,2.31s-1.88.32-3.2-1.11c0,0,.94,2.56-.88,3.21s-.78-2.85-.78-2.85-1.81,1.87-3.05,1.49-.2-2.12,2.3-2.9c0,0-3.4.73-3.54-1S395.36,396.55,397.08,397.68Z" style="fill:#1976D2"></path><path d="M397.08,397.68s-2-3.14-.68-4,1.89,3.15,1.89,3.15.62-2.7,1.93-2.9,1,1.95-.51,3.61c0,0,2.58-1.35,3.4-.72s-.73,2.36-2.93,2.16c0,0,2.9,1,2.22,2.31s-1.88.32-3.2-1.11c0,0,.94,2.56-.88,3.21s-.78-2.85-.78-2.85-1.81,1.87-3.05,1.49-.2-2.12,2.3-2.9c0,0-3.4.73-3.54-1S395.36,396.55,397.08,397.68Z" style="fill:#fff;isolation:isolate;opacity:0.5"></path><path d="M398.06,397.73c1.13-.61,1.65,1.15.6,1.64S397,398.32,398.06,397.73Z" style="fill:#1976D2;isolation:isolate;opacity:0.30000000000000004"></path><path d="M350,401.14s.15-1,1.07-1,1,1.36-.14,1.48c0,0,1.3.06,1.14.93a.88.88,0,0,1-1.63.41s-.16,1.59-1.47,1.16-.2-1.31-.2-1.31-1.31.66-1.39-.68,1.45-.52,1.45-.52-1.29-1.12-.09-1.58S350,401.14,350,401.14Z" style="fill:#1976D2"></path><path d="M350,401.14s.15-1,1.07-1,1,1.36-.14,1.48c0,0,1.3.06,1.14.93a.88.88,0,0,1-1.63.41s-.16,1.59-1.47,1.16-.2-1.31-.2-1.31-1.31.66-1.39-.68,1.45-.52,1.45-.52-1.29-1.12-.09-1.58S350,401.14,350,401.14Z" style="fill:#fff;isolation:isolate;opacity:0.5"></path><path d="M350.42,402.05a.72.72,0,0,1-1.41.05.72.72,0,0,1,1.41-.05Z" style="fill:#1976D2;isolation:isolate;opacity:0.30000000000000004"></path><path d="M380.71,404.52s.17-1.17,1.21-1.17,1.14,1.53-.15,1.67c0,0,1.45.06,1.27,1a1,1,0,0,1-1.84.47s-.16,1.79-1.65,1.3-.22-1.47-.22-1.47-1.48.75-1.57-.77,1.63-.59,1.63-.59-1.44-1.26-.09-1.77S380.71,404.52,380.71,404.52Z" style="fill:#1976D2"></path><path d="M380.71,404.52s.17-1.17,1.21-1.17,1.14,1.53-.15,1.67c0,0,1.45.06,1.27,1a1,1,0,0,1-1.84.47s-.16,1.79-1.65,1.3-.22-1.47-.22-1.47-1.48.75-1.57-.77,1.63-.59,1.63-.59-1.44-1.26-.09-1.77S380.71,404.52,380.71,404.52Z" style="fill:#fff;isolation:isolate;opacity:0.5"></path><path d="M381.21,405.54a.72.72,0,0,1-.77.67.73.73,0,0,1-.82-.61.81.81,0,0,1,1.59-.06Z" style="fill:#1976D2;isolation:isolate;opacity:0.30000000000000004"></path><path d="M369.27,397.06a1.32,1.32,0,0,1,1.64.38c.55.87-.68,1.79-1.49.77,0,0,.74,1.26-.19,1.64s-1.84-.43-1.38-1.3c0,0-1.6.83-2-.68s1.12-1,1.12-1-1.43-.84-.2-1.73,1.38,1.05,1.38,1.05.28-1.89,1.44-1S369.27,397.06,369.27,397.06Z" style="fill:#1976D2"></path><path d="M369.27,397.06a1.32,1.32,0,0,1,1.64.38c.55.87-.68,1.79-1.49.77,0,0,.74,1.26-.19,1.64s-1.84-.43-1.38-1.3c0,0-1.6.83-2-.68s1.12-1,1.12-1-1.43-.84-.2-1.73,1.38,1.05,1.38,1.05.28-1.89,1.44-1S369.27,397.06,369.27,397.06Z" style="fill:#fff;isolation:isolate;opacity:0.5"></path><path d="M368.68,398a.82.82,0,1,1,.07-1A.73.73,0,0,1,368.68,398Z" style="fill:#1976D2;isolation:isolate;opacity:0.30000000000000004"></path></g><g id="freepik--plants-1--inject-148"><path d="M192.53,410.91c-.39,0-1.91-2.82-2.31-3.22-.62-.63-1.55-.95-2.14-1.57-1.26-1.32-.09-4.33-1.9-4.41a3.67,3.67,0,0,1-2.45-1.13,3,3,0,0,0-3.49-2.81c-.59.13-1.13.43-1.72.55a1.48,1.48,0,0,1-1.6-.53c-.12-.2-.16-.45-.34-.6a1,1,0,0,0-.87-.07c-1.29.32-3.29.4-4.37,1.26-.44.35-1.17,2.43-1.72,2.33a8,8,0,0,1-2.93-.94,2.71,2.71,0,0,1-1.36-2.57c.06-.41.25-.85,0-1.22-.33-.59-1.25-.32-1.86-.62-1.33-.66-.18-3.21-1.45-4a3,3,0,0,0-1.23-.23,4,4,0,0,1-2.65-1.46c-.68-.86-1.29-2.16-2.38-2a3.43,3.43,0,0,0-.95.4c-2.19,1-2.94-.55-3.75-2-1.22-2.22-2.23-.95-3.89-2.05-.66-.44-.45-1.54-1-2.12-.71-.75-2.12-.13-2.91-.79-.27-.22-.42-.57-.68-.81-.94-.88-2.47.06-3.73-.15s-2.29-1.79-3.67-1.84a1.86,1.86,0,0,0-1.83,1.5c-3.81-1.46-6,.31-9.14,2.14a12.16,12.16,0,0,1-3,1.49c-1.28.31-2.59-.31-3.58.95a1,1,0,0,0-1.56-.17c-.19.24-.25.56-.45.8a1.5,1.5,0,0,1-1.5.35,4.88,4.88,0,0,0-1.6-.23,2.1,2.1,0,0,0-1.51,1.24,6.12,6.12,0,0,0-.44,2,5.85,5.85,0,0,0-2-.9,2,2,0,0,0-2,.66,1.31,1.31,0,0,1-.36.44c-.33.18-.78-.08-1.08.14a.76.76,0,0,0-.24.48c-.11.55-.13,1.12-.29,1.66-1.15,4-3.31-1.21-4.44-1.22a3,3,0,0,0-1.68.75A3.35,3.35,0,0,0,97,387.7a2.93,2.93,0,0,1-1.17,2.16L94.53,388c-.16-.24-.36-.5-.65-.52s-.56.25-.75.5l-3.19,4.17-2-2.35a7.35,7.35,0,0,0-.77,4.54A2.91,2.91,0,0,0,83,396c-.23.85-.06,1.83-.56,2.56s-1.69.93-2.61,1.3-1.74,1.58-1.05,2.28a3.33,3.33,0,0,0-2.53,2.06,10,10,0,0,0-.62,3.35c-2.4-.24-2.72,1.43-3.55,3.39Z" style="fill:#1976D2"></path><path d="M192.53,410.91H72.12c.83-2,1.15-3.63,3.55-3.39a10,10,0,0,1,.62-3.35,3.33,3.33,0,0,1,2.53-2.06c-.69-.7.13-1.9,1.05-2.28.45-.18,1-.3,1.42-.48a2.35,2.35,0,0,0,1.19-.82c.5-.73.33-1.71.56-2.56a2.91,2.91,0,0,1,4.13-1.68,7.35,7.35,0,0,1,.77-4.54l2,2.35,3.19-4.17c.19-.25.44-.53.75-.5s.49.28.65.52l1.28,1.91A2.93,2.93,0,0,0,97,387.7a3.35,3.35,0,0,1,1.61,2.67,3,3,0,0,1,1.68-.75c1.13,0,3.29,5.19,4.44,1.22.16-.54.18-1.11.29-1.66a.76.76,0,0,1,.24-.48c.3-.22.75,0,1.08-.14a1.31,1.31,0,0,0,.36-.44,2,2,0,0,1,2-.66,5.85,5.85,0,0,1,2,.9,6.12,6.12,0,0,1,.44-2,2.1,2.1,0,0,1,1.51-1.24,4.88,4.88,0,0,1,1.6.23,1.5,1.5,0,0,0,1.5-.35c.2-.24.26-.56.45-.8a1,1,0,0,1,1.56.17c1-1.26,2.3-.64,3.58-.95a12.16,12.16,0,0,0,3-1.49c3.1-1.83,5.33-3.6,9.14-2.14a1.86,1.86,0,0,1,1.83-1.5c1.38.05,2.3,1.61,3.67,1.84s2.79-.73,3.73.15c.26.24.41.59.68.81.79.66,2.2,0,2.91.79.55.58.34,1.68,1,2.12,1.66,1.1,2.67-.17,3.89,2.05.81,1.47,1.56,3,3.75,2a3.43,3.43,0,0,1,.95-.4c1.09-.15,1.7,1.15,2.38,2a4,4,0,0,0,2.65,1.46,3,3,0,0,1,1.23.23c1.27.76.12,3.31,1.45,4,.61.3,1.53,0,1.86.62.2.37,0,.81,0,1.22a2.71,2.71,0,0,0,1.36,2.57,8,8,0,0,0,2.93.94c.55.1,1.28-2,1.72-2.33,1.08-.86,3.08-.94,4.37-1.26a1,1,0,0,1,.87.07c.18.15.22.4.34.6a1.48,1.48,0,0,0,1.6.53c.59-.12,1.13-.42,1.72-.55a3,3,0,0,1,3.49,2.81,3.67,3.67,0,0,0,2.45,1.13c1.81.08.64,3.09,1.9,4.41.59.62,1.52.94,2.14,1.57C190.62,408.09,192.14,410.91,192.53,410.91Z" style="isolation:isolate;opacity:0.30000000000000004"></path><path d="M158.92,410.91H72.12c.83-2,1.15-3.63,3.55-3.39a10,10,0,0,1,.62-3.35,3.33,3.33,0,0,1,2.53-2.06c-.69-.7.13-1.9,1.05-2.28.45-.18,1-.3,1.42-.48,1.13.43,2.3,1.1,3.55.58s.32-2.44,2.34-2.41c.94,0,1.3,1.84,2.49,1.75,3-.22,2.1-3.49,4.85-.3.8.92,0,2.44,1.43,3.34s3.45-.28,4.86-.41c.35-1.22-.3-2.6.2-3.77s2.16-1.66,3.52-1.51a22.63,22.63,0,0,0,4.06.55c-.49,0,1.13-2.18,1.34-2.33,1.35-.95,4-.06,5.73-1.11,2-1.2,3.18-4.7,6.16-3.17,1.13.58,1.67,1.87,2.29,3s1.61,2.28,2.89,2.19,2.69-1.61,3.84-.87c.86.55.81,1.51,2.32,1.92,1.26.35,2.48-.9,3.63-.59,1.62.42,1.84,1.8,3,2.62,1.77,1.21,2.23,1,4.33,1.47a3,3,0,0,1,1.85,4.19,3.74,3.74,0,0,0,4.67-.75c.44-.53.93-1.26,1.59-1.1,1,.25.44,1.82.67,2.86.47,2.07,4.17,1.74,5.66,2.57a1.53,1.53,0,0,0-.24,2A4.92,4.92,0,0,0,158.92,410.91Z" style="isolation:isolate;opacity:0.30000000000000004"></path><path d="M98,395.81s-2-3.14-.67-4S99.17,395,99.17,395s.62-2.71,1.94-2.9,1,1.95-.51,3.6c0,0,2.57-1.35,3.39-.71s-.73,2.36-2.92,2.15c0,0,2.9,1,2.22,2.32s-1.88.31-3.2-1.11c0,0,.94,2.55-.88,3.21s-.78-2.86-.78-2.86-1.81,1.87-3.05,1.49-.2-2.11,2.29-2.89c0,0-3.4.72-3.54-1S96.25,394.69,98,395.81Z" style="fill:#1976D2"></path><path d="M98,395.81s-2-3.14-.67-4S99.17,395,99.17,395s.62-2.71,1.94-2.9,1,1.95-.51,3.6c0,0,2.57-1.35,3.39-.71s-.73,2.36-2.92,2.15c0,0,2.9,1,2.22,2.32s-1.88.31-3.2-1.11c0,0,.94,2.55-.88,3.21s-.78-2.86-.78-2.86-1.81,1.87-3.05,1.49-.2-2.11,2.29-2.89c0,0-3.4.72-3.54-1S96.25,394.69,98,395.81Z" style="fill:#fff;isolation:isolate;opacity:0.5"></path><path d="M99,395.86c1.13-.61,1.65,1.15.6,1.65S97.88,396.45,99,395.86Z" style="fill:#1976D2;isolation:isolate;opacity:0.30000000000000004"></path><path d="M139.37,383.3s1.64-2.1,2.55-1.44-1.67,2-1.67,2,2-.24,2.43.6-1.07,1.15-2.56.54c0,0,1.55,1.41,1.31,2.11s-1.76.09-2.16-1.44c0,0,0,2.19-1,2.06s-.68-1.19,0-2.43c0,0-1.49,1.26-2.38.19s1.74-1.22,1.74-1.22-1.71-.77-1.76-1.7,1.38-.65,2.52.84c0,0-1.32-2.12-.2-2.63S139.71,381.86,139.37,383.3Z" style="fill:#1976D2"></path><path d="M139.37,383.3s1.64-2.1,2.55-1.44-1.67,2-1.67,2,2-.24,2.43.6-1.07,1.15-2.56.54c0,0,1.55,1.41,1.31,2.11s-1.76.09-2.16-1.44c0,0,0,2.19-1,2.06s-.68-1.19,0-2.43c0,0-1.49,1.26-2.38.19s1.74-1.22,1.74-1.22-1.71-.77-1.76-1.7,1.38-.65,2.52.84c0,0-1.32-2.12-.2-2.63S139.71,381.86,139.37,383.3Z" style="fill:#fff;isolation:isolate;opacity:0.5"></path><path d="M139.58,384c.69.61-.37,1.39-1,.8S138.92,383.39,139.58,384Z" style="fill:#1976D2;isolation:isolate;opacity:0.30000000000000004"></path><path d="M150.7,403.4s.41-2.63,1.52-2.5-.46,2.6-.46,2.6,1.61-1.17,2.42-.66-.38,1.53-2,1.71c0,0,2,.49,2.18,1.22s-1.51.93-2.6-.21c0,0,1.11,1.88.11,2.3s-1.17-.72-1.21-2.11c0,0-.69,1.83-2,1.32s.92-1.91.92-1.91-1.86.16-2.35-.63.88-1.24,2.6-.49c0,0-2.18-1.21-1.45-2.2S150.3,402,150.7,403.4Z" style="fill:#1976D2"></path><path d="M150.7,403.4s.41-2.63,1.52-2.5-.46,2.6-.46,2.6,1.61-1.17,2.42-.66-.38,1.53-2,1.71c0,0,2,.49,2.18,1.22s-1.51.93-2.6-.21c0,0,1.11,1.88.11,2.3s-1.17-.72-1.21-2.11c0,0-.69,1.83-2,1.32s.92-1.91.92-1.91-1.86.16-2.35-.63.88-1.24,2.6-.49c0,0-2.18-1.21-1.45-2.2S150.3,402,150.7,403.4Z" style="fill:#fff;isolation:isolate;opacity:0.5"></path><path d="M151.21,403.89c.9.2.35,1.4-.45,1.18S150.35,403.7,151.21,403.89Z" style="fill:#1976D2;isolation:isolate;opacity:0.30000000000000004"></path><path d="M123.32,404s.14-1,1.06-1,1,1.36-.13,1.49c0,0,1.29,0,1.13.92a.88.88,0,0,1-1.63.41s-.15,1.59-1.46,1.16-.2-1.31-.2-1.31-1.32.67-1.39-.68,1.44-.52,1.44-.52-1.28-1.12-.08-1.57S123.32,404,123.32,404Z" style="fill:#1976D2"></path><path d="M123.32,404s.14-1,1.06-1,1,1.36-.13,1.49c0,0,1.29,0,1.13.92a.88.88,0,0,1-1.63.41s-.15,1.59-1.46,1.16-.2-1.31-.2-1.31-1.32.67-1.39-.68,1.44-.52,1.44-.52-1.28-1.12-.08-1.57S123.32,404,123.32,404Z" style="fill:#fff;isolation:isolate;opacity:0.5"></path><path d="M123.76,404.93a.65.65,0,0,1-.69.59.63.63,0,0,1-.72-.54.64.64,0,0,1,.68-.59A.66.66,0,0,1,123.76,404.93Z" style="fill:#1976D2;isolation:isolate;opacity:0.30000000000000004"></path></g><g id="freepik--tree-house--inject-148"><path d="M64.14,218.16c.3.36.81.39,1.25.52,1.67.49,2.43,2.47,2.47,4.21s-.4,3.51-.07,5.22a1.42,1.42,0,0,0,.41.85,1.8,1.8,0,0,0,1.13.26,12,12,0,0,1,7.46,3.31c1.88,2.07.74,3.92,1.86,6,.55,1,2.1.62,3.17,1.05,1.86.74,2,3.84,3.89,4.38a4.19,4.19,0,0,0,1.76-.05,20.86,20.86,0,0,1,5.69-.15,1.89,1.89,0,0,1,1,.33c.9.76-.09,2.14-.37,3.29-.41,1.7,1,3.31,2.52,4.18s3.28,1.38,4.49,2.63a7.58,7.58,0,0,0,1.56,1.54,4.26,4.26,0,0,0,2.07.35c7.76,0,11.8,2,18.9,4.9a15.32,15.32,0,0,0,4,1.1,7.25,7.25,0,0,0,6.15-2c.68-.63,1.13-1.46,1.76-2.15,2.87-3.18,8-2.68,11.82-2.79,2,0,4.09.37,5.9-.45,2.5-1.13,3.48-4.11,4.19-6.76,3.83.36,9.12,0,12.5-2,3.8-2.26,5.49-6.18,10.06-7.46s4.82.42,6.39-2.18a21.29,21.29,0,0,1,5.17-.09,1.86,1.86,0,0,1,1,.34c.91.76-.09,2.14-.37,3.29-.41,1.7,1,3.31,2.52,4.18s3.28,1.37,4.5,2.63a7.25,7.25,0,0,0,1.55,1.53,4.15,4.15,0,0,0,2.07.35c7.76,0,11.8,2,18.9,4.9,3.56,1.43,7.1,2,10.16-.87.68-.63,1.14-1.47,1.76-2.16,2.87-3.17,8-2.68,11.82-2.78,2-.06,4.09.36,5.9-.46a4.54,4.54,0,0,0,.53-.3,6.28,6.28,0,0,0,.61,2.62c.55,1,2.1.63,3.17,1.05,1.86.75,2,3.84,3.89,4.38a4,4,0,0,0,1.76-.05,21.75,21.75,0,0,1,5.7-.15,1.94,1.94,0,0,1,1,.33c.91.76-.09,2.15-.37,3.3-.41,1.7,1,3.31,2.52,4.17s3.28,1.38,4.5,2.64a7.49,7.49,0,0,0,1.55,1.53,4.26,4.26,0,0,0,2.07.35c7.76,0,11.8,2,18.9,4.9,3.56,1.43,7.1,2,10.16-.87.68-.64,1.14-1.47,1.76-2.16,2.87-3.18,8-2.68,11.82-2.78,2-.06,4.09.36,5.9-.46,2.51-1.13,3.48-4.11,4.19-6.76a29,29,0,0,0,4.78.05,9,9,0,0,1,2.36,2.15,6.05,6.05,0,0,0,1.05,1.52,3.56,3.56,0,0,0,1.66.62c6.43,1.21,9.46,3.55,14.9,7,2.73,1.74,5.57,2.77,8.56.87a21.47,21.47,0,0,0,1.8-1.51c2.88-2.18,7-1,10.24-.45.32.05.64.12,1,.19a9,9,0,0,0,4,.37,5.8,5.8,0,0,0,3.43-2.89,21.75,21.75,0,0,0,1.11-2.06,24.62,24.62,0,0,0,2.45.57,16.61,16.61,0,0,0,8.23-.26c3.51-1.27,5.53-4.26,9.52-4.6,4.69-.39,3.78,1.73,6.84-2.28s3.76.08,7.05-4.54-1.49-9.19,1.7-13.51c2.52-3.41,9.73-11.12,3.5-14.62a10.27,10.27,0,0,1-2.36-1.33c-1.3-1.28-.09-2.13-.24-3.37a8,8,0,0,0-.6-3.23,12.41,12.41,0,0,0-5.29-5.53c-1.33-.63-3.29.06-4.45-1s-.65-2.53-1.11-4-1.9-2.15-3.28-2.59c-2.95-1-6.06-2.8-6.86-6.07-.56-2.31-2-4.73-4.4-5.1-1.75-.27-3.43.68-5.08,1.36a9,9,0,0,1-1.17.41A12.49,12.49,0,0,0,392,192c2.68-5.34,4.4-.74,7.2-6.85s-3.76-10.36-1-16.09c2.18-4.53,8.86-15.09.84-17.79a12.38,12.38,0,0,1-3-1c-1.79-1.2-.57-2.46-1-3.87s-.29-2-1.4-3.63a14.79,14.79,0,0,0-7.39-5.26c-1.68-.44-3.81.8-5.39-.18-1.77-1.08-1.32-2.8-2.19-4.45s-2.69-2.07-4.4-2.29c-3.64-.46-7.66-1.91-9.31-5.54-1.17-2.57-3.43-5.06-6.25-5-2.1.07-3.85,1.54-5.61,2.7s-4.09,2.06-5.9,1a9.44,9.44,0,0,1-2-2c-4.78-5.34-12.85-2.57-19-4.17-1.84-.47-3.73-2.32-5.77-1.33-1.4.67-2.32,2-3.34,3.18l-.2.2a6.49,6.49,0,0,0-1.15-2.71,14.8,14.8,0,0,0-7.39-5.27c-1.67-.44-3.8.81-5.39-.17-1.76-1.08-1.32-2.81-2.19-4.45s-2.68-2.07-4.39-2.29c-3.64-.46-7.66-1.91-9.31-5.54-1.17-2.57-3.43-5.06-6.25-5-2.11.08-3.85,1.55-5.61,2.71s-4.1,2.06-5.9,1a10,10,0,0,1-2-2c-4.77-5.34-12.85-2.57-19-4.17-1.83-.48-3.72-2.33-5.77-1.34a11.87,11.87,0,0,0-3.34,3.18c-1,1.17-2.37,2.27-3.92,2.18A9.33,9.33,0,0,1,233,95.2c-2.92-.93-5.16.84-7.75.51-.72,1.92-2.41,2.12-3.81,3.43-2.41,2.25-.45,6.33-1.23,9.54a1.93,1.93,0,0,1-.6,1.11.53.53,0,0,1-.1.06,3.8,3.8,0,0,1-2.63-.41,9.49,9.49,0,0,1-2-2c-4.78-5.34-12.85-2.56-19-4.16-1.84-.48-3.73-2.33-5.77-1.34-1.4.68-2.32,2-3.35,3.18s-2.37,2.27-3.92,2.18a9.59,9.59,0,0,1-2.24-.62c-2.92-.93-5.15.84-7.75.51-.72,1.92-2.41,2.11-3.81,3.43-2.4,2.25-.45,6.33-1.22,9.54a2,2,0,0,1-.61,1.11,2.35,2.35,0,0,1-1.55.34l-9.31-.11a1.61,1.61,0,0,0-1.31.38c-.42.52-.06,1.27,0,1.92.26,2.74-4.3,3.24-5.37,5.77-.58,1.38.06,2.95,0,4.44-.08,2.46-2,4.41-3.46,6.37a43.32,43.32,0,0,0-7.77,20,1.64,1.64,0,0,0,.22,1.2c.29.35.8.38,1.24.51a3,3,0,0,1,1.8,1.55,6,6,0,0,1,.66,2.47,9.53,9.53,0,0,1-2-2c-4.77-5.34-12.85-2.56-19-4.16-1.83-.48-3.73-2.33-5.77-1.34-1.4.68-2.32,2-3.34,3.18s-2.38,2.27-3.92,2.18a9.33,9.33,0,0,1-2.24-.62c-2.92-.93-5.16.84-7.75.51-.72,1.92-2.41,2.11-3.82,3.43-2.4,2.25-.44,6.33-1.22,9.54a2,2,0,0,1-.6,1.11,2.39,2.39,0,0,1-1.56.34l-9.31-.11a1.61,1.61,0,0,0-1.31.38c-.41.52,0,1.27,0,1.92.26,2.74-4.3,3.24-5.36,5.77-.59,1.38,0,2.94,0,4.44-.08,2.46-2,4.41-3.46,6.37A43.2,43.2,0,0,0,63.93,217,1.6,1.6,0,0,0,64.14,218.16Z" style="fill:#1976D2"></path><path d="M64.14,218.16c.3.36.81.39,1.25.52,1.67.49,2.43,2.47,2.47,4.21s-.4,3.51-.07,5.22a1.42,1.42,0,0,0,.41.85,1.8,1.8,0,0,0,1.13.26,12,12,0,0,1,7.46,3.31c1.88,2.07.74,3.92,1.86,6,.55,1,2.1.62,3.17,1.05,1.86.74,2,3.84,3.89,4.38a4.19,4.19,0,0,0,1.76-.05,20.86,20.86,0,0,1,5.69-.15,1.89,1.89,0,0,1,1,.33c.9.76-.09,2.14-.37,3.29-.41,1.7,1,3.31,2.52,4.18s3.28,1.38,4.49,2.63a7.58,7.58,0,0,0,1.56,1.54,4.26,4.26,0,0,0,2.07.35c7.76,0,11.8,2,18.9,4.9a15.32,15.32,0,0,0,4,1.1,7.25,7.25,0,0,0,6.15-2c.68-.63,1.13-1.46,1.76-2.15,2.87-3.18,8-2.68,11.82-2.79,2,0,4.09.37,5.9-.45,2.5-1.13,3.48-4.11,4.19-6.76,3.83.36,9.12,0,12.5-2,3.8-2.26,5.49-6.18,10.06-7.46s4.82.42,6.39-2.18a21.29,21.29,0,0,1,5.17-.09,1.86,1.86,0,0,1,1,.34c.91.76-.09,2.14-.37,3.29-.41,1.7,1,3.31,2.52,4.18s3.28,1.37,4.5,2.63a7.25,7.25,0,0,0,1.55,1.53,4.15,4.15,0,0,0,2.07.35c7.76,0,11.8,2,18.9,4.9,3.56,1.43,7.1,2,10.16-.87.68-.63,1.14-1.47,1.76-2.16,2.87-3.17,8-2.68,11.82-2.78,2-.06,4.09.36,5.9-.46a4.54,4.54,0,0,0,.53-.3,6.28,6.28,0,0,0,.61,2.62c.55,1,2.1.63,3.17,1.05,1.86.75,2,3.84,3.89,4.38a4,4,0,0,0,1.76-.05,21.75,21.75,0,0,1,5.7-.15,1.94,1.94,0,0,1,1,.33c.91.76-.09,2.15-.37,3.3-.41,1.7,1,3.31,2.52,4.17s3.28,1.38,4.5,2.64a7.49,7.49,0,0,0,1.55,1.53,4.26,4.26,0,0,0,2.07.35c7.76,0,11.8,2,18.9,4.9,3.56,1.43,7.1,2,10.16-.87.68-.64,1.14-1.47,1.76-2.16,2.87-3.18,8-2.68,11.82-2.78,2-.06,4.09.36,5.9-.46,2.51-1.13,3.48-4.11,4.19-6.76a29,29,0,0,0,4.78.05,9,9,0,0,1,2.36,2.15,6.05,6.05,0,0,0,1.05,1.52,3.56,3.56,0,0,0,1.66.62c6.43,1.21,9.46,3.55,14.9,7,2.73,1.74,5.57,2.77,8.56.87a21.47,21.47,0,0,0,1.8-1.51c2.88-2.18,7-1,10.24-.45.32.05.64.12,1,.19a9,9,0,0,0,4,.37,5.8,5.8,0,0,0,3.43-2.89,21.75,21.75,0,0,0,1.11-2.06,24.62,24.62,0,0,0,2.45.57,16.61,16.61,0,0,0,8.23-.26c3.51-1.27,5.53-4.26,9.52-4.6,4.69-.39,3.78,1.73,6.84-2.28s3.76.08,7.05-4.54-1.49-9.19,1.7-13.51c2.52-3.41,9.73-11.12,3.5-14.62a10.27,10.27,0,0,1-2.36-1.33c-1.3-1.28-.09-2.13-.24-3.37a8,8,0,0,0-.6-3.23,12.41,12.41,0,0,0-5.29-5.53c-1.33-.63-3.29.06-4.45-1s-.65-2.53-1.11-4-1.9-2.15-3.28-2.59c-2.95-1-6.06-2.8-6.86-6.07-.56-2.31-2-4.73-4.4-5.1-1.75-.27-3.43.68-5.08,1.36a9,9,0,0,1-1.17.41A12.49,12.49,0,0,0,392,192c2.68-5.34,4.4-.74,7.2-6.85s-3.76-10.36-1-16.09c2.18-4.53,8.86-15.09.84-17.79a12.38,12.38,0,0,1-3-1c-1.79-1.2-.57-2.46-1-3.87s-.29-2-1.4-3.63a14.79,14.79,0,0,0-7.39-5.26c-1.68-.44-3.81.8-5.39-.18-1.77-1.08-1.32-2.8-2.19-4.45s-2.69-2.07-4.4-2.29c-3.64-.46-7.66-1.91-9.31-5.54-1.17-2.57-3.43-5.06-6.25-5-2.1.07-3.85,1.54-5.61,2.7s-4.09,2.06-5.9,1a9.44,9.44,0,0,1-2-2c-4.78-5.34-12.85-2.57-19-4.17-1.84-.47-3.73-2.32-5.77-1.33-1.4.67-2.32,2-3.34,3.18l-.2.2a6.49,6.49,0,0,0-1.15-2.71,14.8,14.8,0,0,0-7.39-5.27c-1.67-.44-3.8.81-5.39-.17-1.76-1.08-1.32-2.81-2.19-4.45s-2.68-2.07-4.39-2.29c-3.64-.46-7.66-1.91-9.31-5.54-1.17-2.57-3.43-5.06-6.25-5-2.11.08-3.85,1.55-5.61,2.71s-4.1,2.06-5.9,1a10,10,0,0,1-2-2c-4.77-5.34-12.85-2.57-19-4.17-1.83-.48-3.72-2.33-5.77-1.34a11.87,11.87,0,0,0-3.34,3.18c-1,1.17-2.37,2.27-3.92,2.18A9.33,9.33,0,0,1,233,95.2c-2.92-.93-5.16.84-7.75.51-.72,1.92-2.41,2.12-3.81,3.43-2.41,2.25-.45,6.33-1.23,9.54a1.93,1.93,0,0,1-.6,1.11.53.53,0,0,1-.1.06,3.8,3.8,0,0,1-2.63-.41,9.49,9.49,0,0,1-2-2c-4.78-5.34-12.85-2.56-19-4.16-1.84-.48-3.73-2.33-5.77-1.34-1.4.68-2.32,2-3.35,3.18s-2.37,2.27-3.92,2.18a9.59,9.59,0,0,1-2.24-.62c-2.92-.93-5.15.84-7.75.51-.72,1.92-2.41,2.11-3.81,3.43-2.4,2.25-.45,6.33-1.22,9.54a2,2,0,0,1-.61,1.11,2.35,2.35,0,0,1-1.55.34l-9.31-.11a1.61,1.61,0,0,0-1.31.38c-.42.52-.06,1.27,0,1.92.26,2.74-4.3,3.24-5.37,5.77-.58,1.38.06,2.95,0,4.44-.08,2.46-2,4.41-3.46,6.37a43.32,43.32,0,0,0-7.77,20,1.64,1.64,0,0,0,.22,1.2c.29.35.8.38,1.24.51a3,3,0,0,1,1.8,1.55,6,6,0,0,1,.66,2.47,9.53,9.53,0,0,1-2-2c-4.77-5.34-12.85-2.56-19-4.16-1.83-.48-3.73-2.33-5.77-1.34-1.4.68-2.32,2-3.34,3.18s-2.38,2.27-3.92,2.18a9.33,9.33,0,0,1-2.24-.62c-2.92-.93-5.16.84-7.75.51-.72,1.92-2.41,2.11-3.82,3.43-2.4,2.25-.44,6.33-1.22,9.54a2,2,0,0,1-.6,1.11,2.39,2.39,0,0,1-1.56.34l-9.31-.11a1.61,1.61,0,0,0-1.31.38c-.41.52,0,1.27,0,1.92.26,2.74-4.3,3.24-5.36,5.77-.59,1.38,0,2.94,0,4.44-.08,2.46-2,4.41-3.46,6.37A43.2,43.2,0,0,0,63.93,217,1.6,1.6,0,0,0,64.14,218.16Z" style="isolation:isolate;opacity:0.30000000000000004"></path><path d="M96,238.56a4.69,4.69,0,0,0,2.55,1.79,10.7,10.7,0,0,1,2.58.85c1.51,1,.49,2.08.88,3.26a8.2,8.2,0,0,0,1.2,3.06,12.52,12.52,0,0,0,6.27,4.41c1.42.36,3.21-.7,4.55.12,1.5.9,1.13,2.36,1.87,3.74s2.28,1.74,3.72,1.91c3,.36,6.3,1.52,7.76,4.39a7.25,7.25,0,0,0,6.15-2c.68-.63,1.13-1.46,1.76-2.15,2.87-3.18,8-2.68,11.82-2.79,2,0,4.09.37,5.9-.45,2.5-1.13,3.48-4.11,4.19-6.76,3.83.36,9.12,0,12.5-2,3.8-2.26,5.49-6.18,10.06-7.46s4.82.42,6.39-2.18a21.29,21.29,0,0,1,5.17-.09,1.86,1.86,0,0,1,1,.34c.91.76-.09,2.14-.37,3.29-.41,1.7,1,3.31,2.52,4.18s3.28,1.37,4.5,2.63a7.25,7.25,0,0,0,1.55,1.53,4.15,4.15,0,0,0,2.07.35c7.76,0,11.8,2,18.9,4.9,3.56,1.43,7.1,2,10.16-.87.68-.63,1.14-1.47,1.76-2.16,2.87-3.17,8-2.68,11.82-2.78,2-.06,4.09.36,5.9-.46a4.54,4.54,0,0,0,.53-.3,6.28,6.28,0,0,0,.61,2.62c.55,1,2.1.63,3.17,1.05,1.86.75,2,3.84,3.89,4.38a4,4,0,0,0,1.76-.05,21.75,21.75,0,0,1,5.7-.15,1.94,1.94,0,0,1,1,.33c.91.76-.09,2.15-.37,3.3-.41,1.7,1,3.31,2.52,4.17s3.28,1.38,4.5,2.64a7.49,7.49,0,0,0,1.55,1.53,4.26,4.26,0,0,0,2.07.35c7.76,0,11.8,2,18.9,4.9,3.56,1.43,7.1,2,10.16-.87.68-.64,1.14-1.47,1.76-2.16,2.87-3.18,8-2.68,11.82-2.78,2-.06,4.09.36,5.9-.46,2.51-1.13,3.48-4.11,4.19-6.76a29,29,0,0,0,4.78.05,9,9,0,0,1,2.36,2.15,6.05,6.05,0,0,0,1.05,1.52,3.56,3.56,0,0,0,1.66.62c6.43,1.21,9.46,3.55,14.9,7,2.73,1.74,5.57,2.77,8.56.87a21.47,21.47,0,0,0,1.8-1.51c2.88-2.18,7-1,10.24-.45.32.05.64.12,1,.19a5.66,5.66,0,0,1,.15-1.31,1.66,1.66,0,0,1,.5-.95,2,2,0,0,1,1.31-.29l5.47,0H387a1.32,1.32,0,0,0,1.1-.33c.26-.32.16-.74.07-1.17,0-.15-.06-.3-.08-.45-.22-2.13,3.05-2.68,4.25-4.44a3.4,3.4,0,0,0-1-.2.68.68,0,0,1-.4-.1.56.56,0,0,1-.14-.29,11,11,0,0,1,0-1.81,1.5,1.5,0,0,0-.86-1.46.8.8,0,0,1-.43-.18.58.58,0,0,1-.08-.41,15.1,15.1,0,0,1,2.7-6.92,4.26,4.26,0,0,0,1.2-2.2c0-.52-.21-1.07,0-1.54.37-.88,1.95-1,1.86-2,0-.23-.14-.49,0-.67a.58.58,0,0,1,.45-.13l3.23,0a.83.83,0,0,0,.54-.12.68.68,0,0,0,.21-.39c.27-1.11-.41-2.52.42-3.3.46-.43,1-.53,1.27-1.11a26.93,26.93,0,0,0,.6-3.69,1.35,1.35,0,0,0-.19-1c-.25-.29-.68-.32-1.05-.43a3.16,3.16,0,0,1-2-2.6,12.15,12.15,0,0,0-2.12-.18,1.48,1.48,0,0,1-.72-.12,2.71,2.71,0,0,1-.54-.53,6.35,6.35,0,0,0-1.55-.92c-.53-.3-1-.86-.88-1.44.1-.4.45-.88.13-1.15a.64.64,0,0,0-.36-.11,7.65,7.65,0,0,0-2,.05,1.57,1.57,0,0,1-.61,0c-.67-.19-.7-1.26-1.35-1.52-.37-.15-.91,0-1.1-.36-.39-.73,0-1.37-.64-2.09a4.18,4.18,0,0,0-2.59-1.14.7.7,0,0,1-.39-.09.49.49,0,0,1-.14-.3,10,10,0,0,1,0-1.81,1.92,1.92,0,0,0-.2-.84,7.15,7.15,0,0,1-1.35,1.14,7.88,7.88,0,0,1-4.34.69,3.25,3.25,0,0,1-1.45,2.34,5.2,5.2,0,0,1-2.05.16c-1.33,0-3.1-.14-4.09,1-.22.23-.38.52-.61.74-1.06,1-2.29.8-3.52.31-2.46-1-3.87-1.71-6.55-1.7A1.44,1.44,0,0,1,359,222a2.76,2.76,0,0,1-.54-.54,6.51,6.51,0,0,0-1.56-.91,1.45,1.45,0,0,1-.87-1.45c.09-.39.44-.87.13-1.14a.66.66,0,0,0-.36-.11,7.29,7.29,0,0,0-2,0,1.57,1.57,0,0,1-.61,0c-.67-.19-.7-1.26-1.35-1.52-.37-.15-.9,0-1.09-.37-.39-.72,0-1.36-.65-2.08a4.12,4.12,0,0,0-2.58-1.14.68.68,0,0,1-.4-.1.5.5,0,0,1-.14-.29,11,11,0,0,1,0-1.81,1.5,1.5,0,0,0-.86-1.46.8.8,0,0,1-.43-.18.58.58,0,0,1-.08-.41,13.75,13.75,0,0,1,.89-3.56,6.42,6.42,0,0,1-3.51-.42c-.39.67-.89,1.41-1.65,1.53a4.36,4.36,0,0,1-1.65-.32c-1.06-.27-2.41-.79-3.44-.14-.21.14-.4.33-.64.46a2.51,2.51,0,0,1-2.83-.54c-1.72-1.32-2.68-2.19-4.79-2.77a1.22,1.22,0,0,1-.54-.25,2.23,2.23,0,0,1-.31-.54.72.72,0,0,0-.14-.2l.12-.21a6.4,6.4,0,0,0,3.56.41c1.22-.33,2-1.28,3.32-1.27,1.57,0,1.21.68,2.34-.57s1.26.13,2.49-1.33c1-1.21.17-2.58.56-3.79a2.23,2.23,0,0,0,.8-.25c.24-.12.42-.32.65-.45,1-.65,2.37-.13,3.44.13a4.33,4.33,0,0,0,1.64.33c.77-.12,1.27-.86,1.66-1.53a6.4,6.4,0,0,0,3.56.41c1.22-.33,2-1.27,3.31-1.27a6.31,6.31,0,0,1,1.33.17,1.59,1.59,0,0,1,.43-1.26,9.31,9.31,0,0,1,.86-.61,34.39,34.39,0,0,0,2.57-9.85,1.35,1.35,0,0,0-.19-1c-.25-.29-.68-.32-1-.43-1.42-.4-2.07-2.07-2.11-3.54s.32-3,0-4.4a1.2,1.2,0,0,0-.35-.72,1.48,1.48,0,0,0-1-.21,10.36,10.36,0,0,1-4.66-1.48,1.76,1.76,0,0,1,1.42-.8,3.19,3.19,0,0,1,1.48.63,1.67,1.67,0,0,0,1.56.22,2,2,0,0,0,.51-.46c1.26-1.24,3.39-.59,5-1,.48-.11,1-.54,1.51-.31a2.81,2.81,0,0,1,.89.75,1.42,1.42,0,0,0,1,.5,3,3,0,0,0,.59-.14c.77-.22,1.36.19,2.05.11.18.45.63.5,1,.8.63.53.12,1.49.33,2.23a.37.37,0,0,0,.16.26.63.63,0,0,0,.41.09l2.44,0a.54.54,0,0,1,.36.09c.1.13,0,.3,0,.46-.07.63,1.13.75,1.41,1.34.16.32,0,.69,0,1,0,.57.53,1,.92,1.48a9.39,9.39,0,0,1,2,4.66s0,.08,0,.13a5.14,5.14,0,0,1,1.24,0,1.24,1.24,0,0,0,.47,0c.51-.13.54-.85,1-1,.29-.11.7,0,.84-.25.3-.48,0-.92.49-1.41a3.35,3.35,0,0,1,2-.76.45.45,0,0,0,.3-.07.33.33,0,0,0,.11-.2,7,7,0,0,0,0-1.21,1,1,0,0,1,.65-1,.62.62,0,0,0,.33-.11.34.34,0,0,0,.05-.28,9.41,9.41,0,0,0-2.05-4.66c-.39-.46-.88-.92-.91-1.49,0-.35.16-.72,0-1-.28-.59-1.48-.7-1.4-1.35,0-.15.1-.33,0-.44a.48.48,0,0,0-.35-.09l-2.46,0a.72.72,0,0,1-.41-.08.39.39,0,0,1-.15-.26c-.21-.75.3-1.7-.33-2.22-.37-.31-.82-.36-1-.81-.68.08-1.27-.33-2-.11a3,3,0,0,1-.59.14,1.39,1.39,0,0,1-1-.51,3,3,0,0,0-.89-.74c-.54-.23-1,.2-1.52.31-1.63.38-3.76-.28-5,1a2.9,2.9,0,0,1-.52.46,1.68,1.68,0,0,1-1.55-.23,3.3,3.3,0,0,0-1.48-.63,1.93,1.93,0,0,0-1.65,1.16,3.06,3.06,0,0,1-2.46,1.29,1.47,1.47,0,0,0-1.15.54c-.24.38-.11.79-.58,1s-1-.05-1.42,0a3.88,3.88,0,0,0-2,1.22,2,2,0,0,0-.37.85.66.66,0,0,0,0,.31,6.17,6.17,0,0,1-.93-.8c-1.6-1.74-.65-3.31-1.6-5.06-.47-.85-1.77-.52-2.68-.87-1.58-.62-1.67-3.23-3.31-3.68a3.37,3.37,0,0,0-1.48.06,18.45,18.45,0,0,1-4.81.15,1.63,1.63,0,0,1-.87-.27c-.77-.64.06-1.81.29-2.79a1.87,1.87,0,0,0,0-.32,8,8,0,0,1-1.4,1.17,7.74,7.74,0,0,1-4.33.69,3.35,3.35,0,0,1-1.45,2.35,5.39,5.39,0,0,1-2.05.15c-1.34,0-3.1-.13-4.1,1a8.69,8.69,0,0,1-.61.75c-1.06,1-2.29.79-3.52.3-2.46-1-3.86-1.7-6.55-1.7a1.46,1.46,0,0,1-.72-.12A2.71,2.71,0,0,1,309,159a6.23,6.23,0,0,0-1.56-.92,1.45,1.45,0,0,1-.87-1.44c.1-.4.44-.88.13-1.14a.58.58,0,0,0-.36-.12,7.64,7.64,0,0,0-2,.05,1.41,1.41,0,0,1-.61,0c-.67-.19-.71-1.26-1.35-1.52-.37-.15-.91,0-1.1-.36-.39-.72,0-1.37-.64-2.09a4.2,4.2,0,0,0-2.59-1.14.62.62,0,0,1-.36-.08c.09,1.16,1.09,2.19.47,3.55-.79,1.73-1.28.42-2,1.94s-.59.75-2.11,1.18c-1.3.36-1.77,1.47-2.85,2.11a6.33,6.33,0,0,1-3.54.56,2.68,2.68,0,0,1-1.19,1.92,4.42,4.42,0,0,1-1.67.13c-1.1,0-2.54-.11-3.35.79-.18.19-.31.43-.5.61a2.5,2.5,0,0,1-2.88.24c-2-.81-3.15-1.39-5.35-1.38a1.31,1.31,0,0,1-.59-.1,2.29,2.29,0,0,1-.44-.44,5.16,5.16,0,0,0-1.27-.74,1.19,1.19,0,0,1-.71-1.19c.07-.32.36-.71.1-.93a.5.5,0,0,0-.29-.09,5.87,5.87,0,0,0-1.62,0,1.05,1.05,0,0,1-.5,0c-.54-.15-.57-1-1.1-1.24-.3-.12-.74,0-.89-.29-.32-.59,0-1.12-.53-1.71a3.37,3.37,0,0,0-2.11-.93.6.6,0,0,1-.33-.08.48.48,0,0,1-.11-.24,9.17,9.17,0,0,1,0-1.48,1.21,1.21,0,0,0-.7-1.19c-.13,0-.27-.05-.35-.15a.42.42,0,0,1-.06-.33,12.1,12.1,0,0,1,2.2-5.65,3.52,3.52,0,0,0,1-1.81c0-.42-.17-.87,0-1.26.31-.71,1.6-.86,1.52-1.63,0-.19-.12-.4,0-.54s.24-.11.37-.11l2.64,0a.67.67,0,0,0,.44-.1.56.56,0,0,0,.17-.31c.22-.91-.33-2.07.35-2.71.39-.37.87-.42,1.08-1,.73.1,1.37-.41,2.19-.14a2.88,2.88,0,0,0,.64.17.11.11,0,0,0,.08,0c.12-.54.43-1.14.56-1.68.34-1.44-.86-2.79-2.14-3.52s-2.78-1.14-3.81-2.2a6.15,6.15,0,0,0-1.32-1.28,2.9,2.9,0,0,0-1.36-.29c-.27,1.67,1.41,3,.55,4.92-1,2.11-1.57.52-2.49,2.37s-.73.93-2.59,1.44c-1.58.45-2.17,1.8-3.48,2.59a7.88,7.88,0,0,1-4.34.69A3.25,3.25,0,0,1,252,141.2a5.2,5.2,0,0,1-2.05.16c-1.34,0-3.1-.13-4.09,1-.22.24-.38.53-.61.75-1.06,1-2.29.79-3.52.3-2.47-1-3.87-1.7-6.56-1.7a1.42,1.42,0,0,1-.71-.12A2.47,2.47,0,0,1,234,141a6.41,6.41,0,0,0-1.56-.92c-.53-.3-1-.86-.87-1.44.09-.4.44-.88.12-1.15a.61.61,0,0,0-.35-.11,7.71,7.71,0,0,0-2,.05,1.57,1.57,0,0,1-.61,0c-.67-.19-.7-1.26-1.35-1.52-.37-.15-.91,0-1.09-.36-.39-.73,0-1.37-.65-2.09a4.18,4.18,0,0,0-2.58-1.14.76.76,0,0,1-.4-.09.56.56,0,0,1-.14-.3,12.18,12.18,0,0,1,0-1.81s0-.08,0-.12A13.74,13.74,0,0,0,221,134c-3.24-.29-7.7,0-10.55,1.75a14,14,0,0,0-2.58,2.09,6.68,6.68,0,0,0,.89.18,1.88,1.88,0,0,1,1.52.79c.3.57.15,1.17.76,1.54s1.29-.09,1.87.06a5.12,5.12,0,0,1,2.56,1.83,3.31,3.31,0,0,1,.48,1.26c.16.48-.26.92.36,1.34a4.13,4.13,0,0,0,1.06.35c2.78.94.46,4.6-.3,6.17a2.38,2.38,0,0,0-.23,1.19h.6a.67.67,0,0,0,.44-.1.5.5,0,0,0,.17-.31c.22-.91-.33-2.07.35-2.7.4-.38.88-.43,1.08-1,.73.1,1.37-.4,2.19-.14a2.91,2.91,0,0,0,.64.18,1.49,1.49,0,0,0,1.11-.62,3.25,3.25,0,0,1,1-.9c.58-.28,1.11.24,1.63.38,1.75.45,4-.34,5.39,1.18a3.3,3.3,0,0,0,.56.56,1.63,1.63,0,0,0,1.67-.28,3.36,3.36,0,0,1,1.59-.76,2.09,2.09,0,0,1,1.77,1.4,3.17,3.17,0,0,0,2.64,1.57,1.54,1.54,0,0,1,1.24.65c.25.47.12,1,.62,1.26s1.06-.07,1.53.05a4.2,4.2,0,0,1,2.09,1.49,2.69,2.69,0,0,1,.4,1c.13.4-.21.76.29,1.1a3.71,3.71,0,0,0,.87.29,1.47,1.47,0,0,1,1.09,1.59l-.12,0A3.17,3.17,0,0,1,245,156.9a2.1,2.1,0,0,0-1.77-1.41,3.33,3.33,0,0,0-1.59.77,1.62,1.62,0,0,1-1.67.27,2.44,2.44,0,0,1-.55-.56c-1.36-1.51-3.64-.72-5.4-1.18-.52-.13-1-.66-1.63-.38a3.43,3.43,0,0,0-.95.91,1.45,1.45,0,0,1-1.11.61,2.8,2.8,0,0,1-.63-.17c-.83-.27-1.46.23-2.2.14-.2.54-.68.6-1.08,1-.68.64-.13,1.8-.35,2.7a.51.51,0,0,1-.17.32.66.66,0,0,1-.44.1l-2.63,0a.49.49,0,0,0-.38.11c-.11.15,0,.36,0,.55.07.77-1.22.91-1.52,1.63-.17.39,0,.83,0,1.26a3.42,3.42,0,0,1-1,1.8,12.25,12.25,0,0,0-2.2,5.65c0,.05,0,.1,0,.15a5.37,5.37,0,0,0-1.33.05,1.21,1.21,0,0,1-.5,0c-.55-.16-.58-1-1.1-1.24-.31-.13-.75,0-.9-.3-.32-.59,0-1.12-.53-1.71a3.42,3.42,0,0,0-2.11-.93.44.44,0,0,1-.32-.08.39.39,0,0,1-.12-.24,9,9,0,0,1,0-1.47,1.2,1.2,0,0,0-.7-1.2c-.12,0-.27,0-.35-.14a.44.44,0,0,1-.06-.34,9.76,9.76,0,0,1,.16-1,5.75,5.75,0,0,1-1,.83,7.79,7.79,0,0,1-4.34.69,3.29,3.29,0,0,1-1.45,2.35,5.39,5.39,0,0,1-2,.15c-1.34,0-3.1-.13-4.09,1-.22.24-.38.53-.61.75-1.06,1-2.29.79-3.52.3a34.36,34.36,0,0,0-3.31-1.25c-2.19,4.34-5.16,10.9.51,12.77a10.7,10.7,0,0,1,2.58.85c1.51,1,.49,2.07.88,3.26a8.2,8.2,0,0,0,1.2,3.06,12.68,12.68,0,0,0,4.49,3.72c-.23.63-.41,1.29-.58,1.92-3.24-.28-7.7,0-10.55,1.75a18.4,18.4,0,0,0-3.42,2.93c-.31,0-.63,0-.94-.07a1.58,1.58,0,0,1-.88-.27c-.77-.64.06-1.81.29-2.78.34-1.44-.86-2.79-2.14-3.52s-2.78-1.14-3.81-2.2a6.15,6.15,0,0,0-1.32-1.28,3.58,3.58,0,0,0-1.75-.29,26.94,26.94,0,0,1-9.17-1.41,8.59,8.59,0,0,1-3.9.47,3.31,3.31,0,0,1-1.45,2.34,5.2,5.2,0,0,1-2.05.16c-1.34,0-3.1-.13-4.1,1a8.55,8.55,0,0,1-.61.74c-1.06,1-2.28.8-3.52.31-2.46-1-3.86-1.7-6.55-1.7a1.48,1.48,0,0,1-.72-.12,2.42,2.42,0,0,1-.53-.53,2,2,0,0,0-.36-.29c-1.05,0-2.08,0-3,.06-1.68.05-3.45-.29-5,.41a4.33,4.33,0,0,0-1.18.83.76.76,0,0,0,.33.88,4.13,4.13,0,0,0,1.06.35c2.78.94.46,4.6-.3,6.17-1,2,1.32,3.46.35,5.58s-1.56.52-2.49,2.37-.72.93-2.59,1.45c-1.58.44-2.17,1.8-3.48,2.58a7.79,7.79,0,0,1-4.34.69A3.27,3.27,0,0,1,119,211.8a5.2,5.2,0,0,1-2,.15c-1.33,0-3.1-.13-4.09,1-.22.24-.38.53-.61.75-1.06,1-2.29.8-3.52.3-2.46-1-3.87-1.7-6.55-1.7a1.44,1.44,0,0,1-.72-.12,2.71,2.71,0,0,1-.54-.53,6.2,6.2,0,0,0-1.56-.91,2.47,2.47,0,0,1-.38-.28,9.8,9.8,0,0,0-.7,1.32,8.11,8.11,0,0,0-.32.85,1.93,1.93,0,0,1,1.52.79c.3.57.15,1.17.76,1.55s1.28-.1,1.87.06a5.1,5.1,0,0,1,2.56,1.82,3.43,3.43,0,0,1,.48,1.26c.16.49-.26.93.36,1.34a4.14,4.14,0,0,0,1.06.36c2.78.93.46,4.59-.3,6.16-1,2,1.32,3.46.35,5.58s-1.57.52-2.49,2.38-.73.92-2.59,1.44c-1.58.44-2.17,1.8-3.48,2.58A5.39,5.39,0,0,1,96,238.56Zm202.18-19.39a10.84,10.84,0,0,1,1.94-5c.2-.27.43-.53.6-.81a2,2,0,0,1,.43.36c.54.59.21,1.11.53,1.7.16.29.59.18.9.3.53.21.55,1.09,1.1,1.24a1.21,1.21,0,0,0,.5,0l.37,0a6.42,6.42,0,0,1,1.24,0,.48.48,0,0,1,.29.1c.26.21,0,.6-.1.93a.77.77,0,0,0,.06.52,1.53,1.53,0,0,0,.65.66l.3.16c.21.41.06.81.29,1.23.13.25.52.15.79.26.47.19.49,1,1,1.1a1.14,1.14,0,0,0,.45,0,5.2,5.2,0,0,1,1.42,0,.47.47,0,0,1,.26.08c.23.19,0,.54-.09.83a1,1,0,0,0,.63,1,5.07,5.07,0,0,1,1.13.66,1.8,1.8,0,0,0,.39.39,1.1,1.1,0,0,0,.51.08,11.09,11.09,0,0,1,4.74,1.23,2.21,2.21,0,0,0,2.55-.22c.16-.16.28-.36.44-.54.72-.79,2-.67,3-.69a3.85,3.85,0,0,0,1.48-.12,2.36,2.36,0,0,0,1-1.69,5.71,5.71,0,0,0,3.14-.5,3.91,3.91,0,0,0,.82-.68.28.28,0,0,1,0,.12c-.7,1.53-1.13.38-1.8,1.72s-.53.66-1.87,1c-1.15.32-1.57,1.3-2.52,1.87a5.71,5.71,0,0,1-3.14.5,2.36,2.36,0,0,1-1,1.69,3.85,3.85,0,0,1-1.48.12c-1,0-2.24-.1-3,.69-.16.18-.28.38-.44.54a2.21,2.21,0,0,1-2.55.22,11.09,11.09,0,0,0-4.74-1.23,1.1,1.1,0,0,1-.51-.08,1.8,1.8,0,0,1-.39-.39,5.07,5.07,0,0,0-1.13-.66,1,1,0,0,1-.63-1c.07-.29.32-.64.09-.83a.47.47,0,0,0-.26-.08,5.2,5.2,0,0,0-1.42,0,1.14,1.14,0,0,1-.45,0c-.48-.14-.5-.91-1-1.1-.27-.11-.66,0-.79-.26-.28-.52,0-1-.47-1.51a3.06,3.06,0,0,0-1.87-.83.43.43,0,0,1-.28-.06.43.43,0,0,1-.11-.21,8.19,8.19,0,0,1,0-1.31,1.08,1.08,0,0,0-.62-1.06c-.11,0-.24,0-.31-.13A.37.37,0,0,1,298.18,219.17Z" style="isolation:isolate;opacity:0.1"></path><path d="M325.79,140.78a2.35,2.35,0,0,0-2-1.41,4,4,0,0,0-1.8.77,2,2,0,0,1-1.88.27,2.54,2.54,0,0,1-.62-.56c-1.54-1.51-4.11-.72-6.1-1.18-.59-.13-1.19-.66-1.84-.38a3.66,3.66,0,0,0-1.08.91,1.68,1.68,0,0,1-1.25.61,3.5,3.5,0,0,1-.71-.17c-.94-.27-1.65.23-2.49.14-.22.54-.76.6-1.22,1-.76.64-.14,1.8-.39,2.7a.49.49,0,0,1-.19.32.84.84,0,0,1-.5.1l-3,0a.61.61,0,0,0-.43.11c-.12.15,0,.36,0,.55.08.77-1.38.91-1.72,1.63-.19.39,0,.83,0,1.26,0,.69-.63,1.25-1.1,1.8a11.51,11.51,0,0,0-2.49,5.65s0,.1,0,.15a6.83,6.83,0,0,0-1.5.05,1.56,1.56,0,0,1-.57,0c-.62-.16-.65-1-1.24-1.24-.35-.13-.84,0-1-.3-.37-.59,0-1.12-.6-1.71a4.13,4.13,0,0,0-2.39-.93.55.55,0,0,1-.36-.08.36.36,0,0,1-.13-.24,8,8,0,0,1,0-1.47,1.19,1.19,0,0,0-.79-1.2c-.14,0-.31,0-.4-.14a.4.4,0,0,1-.06-.34,11.5,11.5,0,0,1,2.48-5.65c.48-.56,1.07-1.11,1.11-1.81,0-.42-.19-.87,0-1.26.34-.71,1.79-.85,1.7-1.63,0-.19-.12-.4,0-.54a.55.55,0,0,1,.42-.11l3,0a.85.85,0,0,0,.5-.1.48.48,0,0,0,.19-.31c.25-.91-.37-2.07.4-2.7.45-.38,1-.43,1.22-1,.82.1,1.54-.4,2.47-.14a3.61,3.61,0,0,0,.72.18,1.76,1.76,0,0,0,1.26-.62,3.45,3.45,0,0,1,1.07-.9c.65-.28,1.25.24,1.84.38,2,.45,4.56-.34,6.09,1.18a3.37,3.37,0,0,0,.63.56,2,2,0,0,0,1.89-.28,4,4,0,0,1,1.79-.76,2.32,2.32,0,0,1,2,1.4,3.67,3.67,0,0,0,3,1.57,1.79,1.79,0,0,1,1.4.65c.29.47.14,1,.7,1.26s1.2-.07,1.73.05a4.73,4.73,0,0,1,2.36,1.49,2.43,2.43,0,0,1,.45,1c.15.4-.23.76.33,1.1a4.8,4.8,0,0,0,1,.29,1.49,1.49,0,0,1,1.24,1.59l-.14,0A3.67,3.67,0,0,1,325.79,140.78Z" style="isolation:isolate;opacity:0.1"></path><path d="M183.58,154.69a1,1,0,0,0-.26,1.16,6.67,6.67,0,0,1,.44,1.12.35.35,0,0,1,0,.23.42.42,0,0,1-.26.16,3.42,3.42,0,0,0-1.57,1.41c-.29.63.14.93,0,1.49,0,.27-.46.33-.7.53s-.17,1-.6,1.31a1.35,1.35,0,0,1-.44.15,6,6,0,0,0-1.18.39.54.54,0,0,0-.05-.11,9.42,9.42,0,0,0-3.55-3.65c-.52-.29-1.15-.54-1.37-1.07-.13-.33-.1-.73-.36-1-.47-.46-1.64-.15-1.8-.77,0-.15,0-.35-.15-.43a.58.58,0,0,0-.36,0l-2.28.89a.69.69,0,0,1-.42.06.41.41,0,0,1-.24-.19c-.45-.62-.3-1.7-1.08-2-.45-.16-.89-.05-1.22-.4-.62.31-1.31.13-2,.61a3.39,3.39,0,0,1-.5.34,1.42,1.42,0,0,1-1.14-.11,3,3,0,0,0-1.1-.4c-.58,0-.89.56-1.31.82-1.4.93-3.62,1.06-4.37,2.67a2,2,0,0,1-.32.61,1.66,1.66,0,0,1-1.53.34,3.27,3.27,0,0,0-1.61-.08,1.93,1.93,0,0,0-1.14,1.67,3,3,0,0,1-1.85,2.07l-.1,0a1.22,1.22,0,0,1,.49-1.58,3.45,3.45,0,0,0,.68-.51c.34-.42-.06-.59-.06-.94a1.89,1.89,0,0,1,0-.93,4,4,0,0,1,1.39-1.83c.38-.24,1-.17,1.32-.53s.1-.74.18-1.18.49-.7.9-.91a3,3,0,0,0,1.85-2.07,1.9,1.9,0,0,1,1.14-1.65,3.22,3.22,0,0,1,1.6.07,1.67,1.67,0,0,0,1.54-.33,2.83,2.83,0,0,0,.33-.62c.74-1.61,3-1.74,4.36-2.66.41-.28.73-.85,1.31-.82a2.78,2.78,0,0,1,1.09.38,1.45,1.45,0,0,0,1.15.12,2.89,2.89,0,0,0,.51-.35c.64-.46,1.34-.29,1.95-.6.33.36.76.24,1.22.41.78.26.63,1.34,1.08,2a.4.4,0,0,0,.24.18.66.66,0,0,0,.41-.06l2.3-.89a.43.43,0,0,1,.35,0c.14.07.11.27.16.42.15.62,1.32.31,1.78.76.27.25.24.66.37,1,.23.53.85.78,1.37,1.08a9.42,9.42,0,0,1,3.55,3.65.35.35,0,0,1,0,.28A.66.66,0,0,1,183.58,154.69Z" style="isolation:isolate;opacity:0.1"></path><path d="M139.61,275.37a4.18,4.18,0,0,1-1.4-1.89q-1.4-2.93-2.78-5.85c-3.48.45-6.71-2.1-10.22-2.12-2.25,0-4.41,1-6.66.94s-4.73-2.18-3.83-4.24l-14.39,3.5c.64,3.23-2,6.37-5.09,7.47s-6.5.69-9.76.26c-3.06,2.27,0,8.08-2.89,10.6A19,19,0,0,1,80,285.48a4.9,4.9,0,0,0,0,7.83,18.6,18.6,0,0,1,2.5,1.43c2.89,2.54-.32,8.2,2.45,10.87.7.67,1.66,1,2.33,1.69,2.31,2.36-.17,6.9,2,9.41a6.26,6.26,0,0,0,2.62,1.58l12.56,5,4.09,1.63a23.92,23.92,0,0,0,5.39,1.69,24.45,24.45,0,0,0,6.16-.14l12.71-1.36a6.17,6.17,0,0,0,3.23-1,2.13,2.13,0,0,0,.46-3c1.8-.93,4-.54,6-.7s4.37-1.39,4.32-3.42c0-1.31-1.07-2.56-.65-3.79.62-1.81,3.48-1.47,4.73-2.91s.08-3.9-.88-5.27c5.21.82,5.14-5.43,5.31-8.79.18-3.62,1.93-7.95,1.34-11.53-.71-4.32-2.73-3.17-6.24-4-2.83-.7-3.26-2-5.42-3.47C143.21,276.07,141.32,276.41,139.61,275.37Z" style="fill:#1976D2"></path><path d="M80,293.32a19.18,19.18,0,0,1,2.5,1.42c2.9,2.54-.33,8.2,2.45,10.87.69.67,1.66,1,2.33,1.68,2.31,2.37-.18,6.91,2,9.42a6.56,6.56,0,0,0,2.62,1.59l12.55,5,4.09,1.63.82.32a19.73,19.73,0,0,0,4.58,1.36,23.9,23.9,0,0,0,6.15-.13l12.72-1.36a6.17,6.17,0,0,0,3.23-1,2.12,2.12,0,0,0,.46-3c1.81-.92,4-.55,6-.7s4.37-1.39,4.32-3.42c0-1.31-1.08-2.57-.65-3.79.62-1.81,3.47-1.46,4.73-2.91s.08-3.9-.88-5.28c5.21.83,5.13-5.42,5.31-8.78.18-3.62,1.93-7.95,1.35-11.53a6.5,6.5,0,0,0-.67-2.14c-1-1.77-2.84-1.22-5.57-1.89s-3.27-2-5.42-3.47c-1.75-1.17-3.65-.82-5.35-1.87a4.28,4.28,0,0,1-1.4-1.88c-.92-2-1.86-3.91-2.78-5.87-3.48.46-6.71-2.08-10.21-2.11-2.26,0-4.42,1-6.67.94s-4.73-2.17-3.82-4.23c-4.81,1.15-9.6,2.33-14.4,3.5.64,3.22-2,6.36-5.09,7.46s-6.51.7-9.76.26c-3.06,2.27,0,8.08-2.89,10.59A17.6,17.6,0,0,1,80,285.48,4.9,4.9,0,0,0,80,293.32Z" style="isolation:isolate;opacity:0.30000000000000004"></path><path d="M108.43,316.18a24.64,24.64,0,0,1-.67,5.64,4.63,4.63,0,0,1,.48.4,4.41,4.41,0,0,1,1.06,3,19.73,19.73,0,0,0,4.58,1.36,23.9,23.9,0,0,0,6.15-.13l12.72-1.36a6.17,6.17,0,0,0,3.23-1,2.12,2.12,0,0,0,.46-3c1.81-.92,4-.55,6-.7s4.37-1.39,4.32-3.42c0-1.31-1.08-2.57-.65-3.79.62-1.81,3.47-1.46,4.73-2.91s.08-3.9-.88-5.28c5.21.83,5.13-5.42,5.31-8.78.18-3.62,1.93-7.95,1.35-11.53a6.5,6.5,0,0,0-.67-2.14c-2.16.13-4.25-.83-6.37-1.51a2.11,2.11,0,0,1-.49,3,6.16,6.16,0,0,1-3.22,1l-12.72,1.36a23.91,23.91,0,0,1-6.15.14,20,20,0,0,1-4.14-1.18,2.16,2.16,0,0,1-.38.6c-1.25,1.45-4.11,1.1-4.73,2.91-.43,1.22.62,2.48.65,3.79,0,2-2.29,3.26-4.32,3.42s-4.19-.22-6,.7a2.12,2.12,0,0,1-.45,3,6.23,6.23,0,0,1-3.24,1l-.18,0c3.09.57,4.9-.16,5.57,3.87C110.36,308.23,108.61,312.56,108.43,316.18Z" style="isolation:isolate;opacity:0.30000000000000004"></path><path d="M181.62,190.06s4.53,2.6,5.15,6.76.37,6.25,5.32,7,11.91,9.91,12.5,13.55c.29,1.82,3,2.29,6.51,2.85s7.66,1.2,10.83,3.36c-.08,3.72.68,6.93,2.28,9a129.38,129.38,0,0,1,9,14.58c1.32,2.87,7.24,31.48,3.93,41.88-1.93,6.05,3.8.94,8.93-4.39,3.68-3.83,7.06-7.78,7.06-7.78s-6.63-30.28-14.47-37.72-10.81-14.95-10.27-25.61-1.93-11.16-6.06-14.13,4.58-14.54,3.78-18.94-1.61-7.39-1.61-7.39l-1.84,1.41s.32,5.14-.36,7.88S214,194,218.77,200.89c4.5,6.5,5,10.63,4,16.14-3.93-.48-13.7-1.77-15-2.93-1.65-1.45-5.74-11-9.57-11.8a17.61,17.61,0,0,1-3.27-1s0,0,0,0c-2.53-1.06-4.82-2.76-5.73-4.88l0,0a3.8,3.8,0,0,1-.18-.47,2.5,2.5,0,0,0-.09-.25,15.71,15.71,0,0,0-3.76-5.07c-1-1-1.9-1.69-1.9-1.69Z" style="fill:#263238"></path><path d="M118,312.17s3.79,0,5.6,1.19,4.9.65,7.1-.47,8,2,9.37,2c1.1.05,6.43-3.17,8.56-4.48-1.67-3.12-3.56-4.95-8.34-6.38-5.07-1.5-4.81-8.89-5.55-10.51a21.83,21.83,0,0,0-2.93-4l.35-1.42s1.59,1.15,3.71,3,2.41,11,5.62,10.82,4.61-.9,8.56,4.57,8.37,8,15.17,8.57c2.54.21,6.24,2.06,9.89,4.28-1.67-12.33-4.61-32.09-8.67-36-5.8-5.54-18.91-29.61-21.32-32.89a6.44,6.44,0,0,1-.71-2.33c-4.51-3.53-10.58-8.25-12.73-9.85-3.59-2.67-13.52-20.87-13.52-20.87h3S129.79,230,132.55,232c1.59,1.14,8.75,3.67,12.93,5.4-.42-12.22.94-18.17,1.17-22.46a55.48,55.48,0,0,0-1.33-11.16h2.51c1.08,4.48,2,8.95,1.93,11.46-.07,6.35,3.62,22.33,5.61,26.32.54,1.07,2.45,4,5.08,7.83,1.88-2.29,4.16-5,4.92-5.77C166.75,242.25,178,226,179,224.32s3.34-10.76,3.34-10.76l1.92,1.38s-3.13,11-5.26,14.42c0,0-8.39,13.33-10.32,18.07-1,2.41-2.25,6.09-3.27,9.13,7.06,10.11,15.82,22.35,19.46,27.35,5.26,7.24,12.45,34.57,14.57,42.92H325c-.4-.43,0-1.14,1.54-2.23,8.93-6.27,21.55-32.63,22.23-35.71a128.1,128.1,0,0,0,1.64-17.07c0-2.65,1.34-5.66,3.66-8.59h0c-2.44-7.25-11.79-12.18-10.05-15.43s1.75-14.75-1.74-18.35-2-5.11,0-8.79,0-8.51,0-8.51h2s1.5,5.81.33,9.06.87,7.78,3.45,10.72,0,13,.47,15.18c.35,1.72,7.34,8.67,10.18,11.43,4.15-3.77,6.24-7.38,6.59-15.27.37-8.35,11.82-10.8,14-12.56s5.06-6.05,5.06-6.05h2.32s-1.16,2.88-3.19,6.85-16,7.93-14.48,12.79,3.16,6.75-3.73,14.91-9.08,15.93-7.33,26.6-11.32,38.79-11.32,38.79-6.6,1.42-12.54,2.23h9.74s-7.4,6.5-15.42,9.05-5.92,4.85-13,12.84-18.63.64-25.06,9.12-.1,22.08,5.59,29.55,18.69,3,25,9.69,6.72,12.88,19.23,11.5,18.34,7.66,18.34,7.66H151.87s15.67-10.2,24.29-9.5,10.54-8.52,27.78-15.31,11.93-24.14-7.19-35a41.16,41.16,0,0,1-19.86-25.63c-4.73-4.76-10.1-9.06-11.15-9.59a82,82,0,0,0-10.21-3.62,9.18,9.18,0,0,1-4.69-3.55h0c-4.82.38-9.28,5.35-11,3.79s-8.77-3.33-11.51-1.75-3.44.46-5.39-1.35-5.2-1.3-5.2-1.3Z" style="fill:#263238"></path><path d="M277.17,209.41c-4.58,9.29-10.81,22.15-10.81,22.15l11.79-.75,8-.51s4.38-21.06,5.87-24.39,9.54-13.49,15.38-18.43,12.1-18.28,12.1-18.28l-.57-.56-1.83-1.77s-7.51,12.78-9.17,14.23-15.6,11-17.63,13.35c-1.7,2-5.42,2.68-7.52,4.58-1.3-1.49-2.86-3.29-4.13-4.82.86-3.27,2.28-8.8,2.71-11.37.49-3,1.52-11,2-14.42.12-1,.19-1.55.19-1.55l-2.26,1.46s-1.39,9.86-2.26,13.49a68.49,68.49,0,0,1-3.15,8.55c-2.16-2.78-12.6-13.63-12.6-13.63L261,178.19s7.26,9.58,10.32,15.1C273.46,197.24,275.94,205.2,277.17,209.41Z" style="fill:#263238"></path><g style="isolation:isolate;opacity:0.1"><path d="M352.18,285.19c-.58,1.77-2.56,17.16-2.56,17.16l-10,20.16a64.82,64.82,0,0,0-6.32,2.34c-2.79,1.25-8.27,2-8.27,2l-.12-.56c.13-.42.65-1,1.66-1.67,8.93-6.27,21.55-32.63,22.23-35.71a128.1,128.1,0,0,0,1.64-17.07c0-2.65,1.34-5.66,3.66-8.59-2.23-6.64-10.26-11.33-10.26-14.57a1.74,1.74,0,0,1,.21-.86c1.75-3.25,1.75-14.75-1.74-18.35s-2-5.11,0-8.79,0-8.51,0-8.51h2s1.5,5.81.33,9.06.87,7.78,3.45,10.72,0,13,.47,15.18c.35,1.72,7.34,8.67,10.18,11.43,4.15-3.77,6.24-7.38,6.59-15.27.37-8.35,11.82-10.8,14-12.56s5.06-6.05,5.06-6.05h2.32s-.16.4-.46,1.1v0c-4.61,4.64-13,9.93-13,9.93s-4,.4-4.41,4-1.81,12.73-1.81,12.73l-10.85,13.59S352.76,283.43,352.18,285.19Z" style="fill:#fff"></path><path d="M310.88,180.28c-3.08,1-14.7,13.95-14.7,13.95s-7.08,9.2-7.7,9.55-7.55,15.31-9.25,19.41c-.55,1.32-.88,4.22-1.08,7.62l-11.79.75s6.23-12.86,10.81-22.15c-1.23-4.21-3.71-12.17-5.9-16.12-3.06-5.52-10.32-15.1-10.32-15.1l2.27-1.45s10.44,10.85,12.6,13.63a68.49,68.49,0,0,0,3.15-8.55c.87-3.63,2.26-13.49,2.26-13.49l2.26-1.46s-.07.59-.19,1.55c-.44,3.4-1.47,11.47-2,14.42-.43,2.57-1.85,8.1-2.71,11.37,1.27,1.53,2.83,3.33,4.13,4.82,2.1-1.9,5.82-2.63,7.52-4.58,2-2.32,16-11.9,17.63-13.35s9.17-14.23,9.17-14.23l1.83,1.77C316.31,173.51,312.71,179.66,310.88,180.28Z" style="fill:#fff"></path><path d="M188.86,195.61a33.48,33.48,0,0,0-3.76-5.07A15.71,15.71,0,0,1,188.86,195.61Z" style="fill:#fff"></path><path d="M244.22,275.36c.05-2.29-5.16-21.89-6.18-26.79s-13.11-27.18-13.11-27.18-6.29-2.3-10.07-2.09-5.42-1.58-7.46-3.44-4-8.43-9-12.08c-1.25-.9-2.43-1.74-3.52-2.5a17.61,17.61,0,0,0,3.27,1c3.83.79,7.92,10.35,9.57,11.8,1.32,1.16,11.09,2.45,15,2.93,1-5.51.5-9.64-4-16.14-4.77-6.87,2.87-15.75,3.56-18.48s.36-7.88.36-7.88l1.84-1.41s.82,3,1.61,7.39-7.91,16-3.78,18.94,6.6,3.46,6.06,14.13,2.42,18.17,10.27,25.61,14.47,37.72,14.47,37.72-3.38,3.95-7.06,7.78A16.37,16.37,0,0,1,244.22,275.36Z" style="fill:#fff"></path><path d="M175.15,319.35q-.1-.77-.21-1.56C175.23,318.61,175.32,319.15,175.15,319.35Z" style="fill:#fff"></path><path d="M121.24,217.43S129.79,230,132.55,232c1.59,1.14,8.76,3.67,12.93,5.4-.42-12.22.94-18.17,1.17-22.46a55.48,55.48,0,0,0-1.33-11.16h2.51c1.08,4.48,2,8.95,1.93,11.46-.07,6.35,3.62,22.33,5.61,26.32.54,1.07,2.45,4,5.08,7.83,1.88-2.29,4.16-5,4.92-5.77C166.75,242.25,178,226,179,224.32s3.34-10.76,3.34-10.76l1.92,1.38s-3.13,11-5.26,14.42c0,0-8.39,13.33-10.32,18.07-1,2.41-2.25,6.09-3.27,9.13,7.06,10.11,15.82,22.35,19.46,27.35,5.26,7.24,12.45,34.57,14.57,42.92,0,0-9.06-6.64-10.77-8.9s-8.16-13.4-8-18.65-6.27-11.09-6.17-12.65-14.74-31.15-14.74-31.15-7.15-10.18-10.67-13-10.43-6.38-15.87-6.78c-3.39-.24-10.13-10.27-14.71-17.75l-.12-.21-.17-.32Z" style="fill:#fff"></path><path d="M135.91,291.11c2.13,1.85,2.41,11,5.62,10.82s4.61-.9,8.56,4.57,8.37,8,15.17,8.57c2.54.21,6.24,2.06,9.89,4.28-1.62,1.88-2.13-.52-4.75-1.42s-10.32-2.84-16.77-4.92c-2.31-.74-4.23-1.29-5.9-2l.94-.58c-1.67-3.12-3.56-4.95-8.34-6.38a79.52,79.52,0,0,0-5-7.59,16.92,16.92,0,0,0-.6-2.92,21.83,21.83,0,0,0-2.93-4l.35-1.42S133.79,289.25,135.91,291.11Z" style="fill:#fff"></path><path d="M151.87,416.24h20.72A15.74,15.74,0,0,1,182,412.8c2.47-.05,5,.48,7.37-.19,5.1-1.45,7.46-7.76,12.42-9.64,1.41-.53,2.95-.67,4.32-1.28s2.32-1.48,3.56-2c1.82-.82,3.94-.84,5.68-1.81,2.38-1.34,3.51-4.2,3.8-6.91s-.09-5.48.17-8.2c.07,1.74.13,3.47.2,5.21a23.45,23.45,0,0,1-.28,6,7.94,7.94,0,0,1-3.15,5,13.41,13.41,0,0,1-2.08,1,44.94,44.94,0,0,0-4.34,2.16c-3.05,1.73-6,4-7.37,7.23.93,0,1.66-.75,2.44-1.27,1.38-.92,3.13-1.06,4.76-1.36a8.53,8.53,0,0,0,2.93-1,60.21,60.21,0,0,0-3.57,5.14,55.44,55.44,0,0,1-4.33,5.36h4.15q7.61-6.89,15.76-13.11l-2.25,6.58c7.08-4.49,10.29-13,13.06-20.9q-1.71,7.94-2.86,16c-.37,2.6-.7,5.22-.87,7.85,2.68-1.09,5.54-2.33,7-4.81.67-.86,2,.24,2.22,1.31s.16,2.42,1.13,2.92l2.55-5a13.56,13.56,0,0,0,1.42-3.63,15.13,15.13,0,0,0,0-3.56,55.9,55.9,0,0,1,1.82-17.51,22.66,22.66,0,0,0,1.18-6.35c.59,6.08-1,12.27-.64,18.39.22,3.79,1.18,7.52,1.34,11.31s-.58,7.82-3.22,10.52h0l8.53-4.92a13.32,13.32,0,0,0,2.59-1.8,12.84,12.84,0,0,0,1.79-2.34l4.89-7.51q1.88,4.86,3.76,9.72c.81,2.1,1.45,4.66,2.44,6.85h12.47c.68-1.95.08-4.2-.53-6.22a7.75,7.75,0,0,0,9.58,3.7c-1.21-2.92-3.36-5.34-5.46-7.71l-7-7.86c3,1.56,6.16,3.18,8.36,5.79,1.11,1.33,2.06,3,3.69,3.57,2.48.93,5.91-.78,7.6,1.26.82,1,.78,2.52,1.63,3.49s2.46,1.1,3.83,1.22a20.34,20.34,0,0,1,8.51,2.76h3.79a18,18,0,0,1-4.06-3.51c-1-1.22-2-2.73-3.52-3.07a21.28,21.28,0,0,1-2.79-.24c-1.29-.45-1.89-1.9-2.9-2.82a8.12,8.12,0,0,0-2.57-1.4L295.61,403c-1.87-.75-3.92-1.66-4.76-3.51,1.1,1.78,3.44,1,5.14,1.33,2.07.38,3.45,1.33,5.27,2.24,1.36.69,3,.43,4.4,1.09a3.8,3.8,0,0,0,1.65.67,28.16,28.16,0,0,0-3.19-4.18c-1.08-1.17-2.71-1-4.1-1.73a12.65,12.65,0,0,1-3.53-2.85,9.43,9.43,0,0,0-2.53-2.51,7,7,0,0,1-1.61-.83,3.43,3.43,0,0,1-.75-1.21l-1.12-2.56a6.92,6.92,0,0,0,2.3,1.56l.49.26a.11.11,0,0,1,0,.06,6.13,6.13,0,0,0,2.65,3.48c1.68,1,3.2,1.12,4.78,2.45a5.07,5.07,0,0,0,2.82,1.22l.21.13c2.63,1.43,6,1.54,9,2.07a3.23,3.23,0,0,1,1.93.83,4.11,4.11,0,0,1,.55,1c2.07,4.59,7.37,6.88,10.18,11a32.17,32.17,0,0,0,2.36,3.2h30.85s-5.82-9-18.34-7.66-12.88-4.78-19.23-11.5-19.34-2.23-25-9.69-12-21.07-5.59-29.55a11,11,0,0,1,6.82-4.18c0-1.76.21-3.93-.21-5.64-.46-1.87-1.48-3.23-1.38-5.3-.08,1.68-2.29,3-3.58,3.6-.82.38-1.21.27-1.79.94s-.58,1.88-1.32,2.66-1.62,1.38-2.3,2.2a10.07,10.07,0,0,0-1.1,1.77,35.5,35.5,0,0,0-2.61,6.58L283,357a4.07,4.07,0,0,1,.7-2.55c1.05-1.86,2.6-3.88,3.31-5.9.62-1.76.17-4.07.24-6-1.74,2.81-3.55,5.71-6.29,7.57a19,19,0,0,0-2,1.37,22.11,22.11,0,0,0-2,2.59,21.67,21.67,0,0,0-2.46,3c-1.08,2-.7,4.36-.71,6.6,0,3-.77,5.45,0,8.49a16.22,16.22,0,0,0,4,7.29,5,5,0,0,1,1.06,1.36,4.17,4.17,0,0,1,.25,1.53c.06,1.92.07,3.84,0,5.76,0,.44-.18,1-.61,1-.25,0-.41-.28-.54-.5l-5.4-9.69a9.66,9.66,0,0,1-1.15-2.66c-.4-2,.25-3.94.38-5.86a18.63,18.63,0,0,0-1-6.13,27.12,27.12,0,0,1-1.15-9.37c-.2,2.19-1.53,4.59-1.92,6.83s-.43,4.63-1,6.79c-1,3.4,1.36,7,.3,10.21-.45,1.38-3.17-4.5-3.41-5-.33-.71-.67-1.69-1.12-2.52-2.29.66.23,6.76,1,7.89a10.12,10.12,0,0,1,.82,1.23c.69,1.38.39,3,.73,4.54a18.44,18.44,0,0,0,1.52,3.51c.77,1.69.82,3.46,1.31,5.18.55,1.93,1.38,3.78,1.92,5.73.35,1.3,2.11,11.12,3.33,11.27l-1-.12c-.78-.1-3.89-10.73-4.41-12-.83-2-1.75-3.88-2.69-5.79-.77-1.58-2-2.76-2.77-4.34-.19-.4-.65-.88-1-.57a.63.63,0,0,0-.15.33,31.43,31.43,0,0,0-1.38,6.12c-.12,2.53.19,4.93-.67,7.39a20.9,20.9,0,0,1-2.43,4.48c-1.19,1.83-2.79,3.87-5,3.77a24.16,24.16,0,0,0,5.53-18.69c-.23-1.74-.66-3.46-.74-5.21-.16-3.59,1.11-7.06,1.64-10.61.39-2.58.07-6.58-1.58-8.71a13.25,13.25,0,0,1-3.12-6.23,15.74,15.74,0,0,0-2.61-5l-4.41-6.42a29.17,29.17,0,0,1,2.41,11.31c-4.41-1.58-6-6.89-9.38-10.17-2.08-2-4.91-3.37-6.38-5.89a25.31,25.31,0,0,0-2.08,3,14.56,14.56,0,0,0-.87,4.28,21.39,21.39,0,0,0,.63,6.93c.49,2.63-.53,5.39.52,7.94.36.88.95,1.65,1.31,2.53a8.58,8.58,0,0,1,.55,2.3,24.7,24.7,0,0,1-4.46,17.56A16.08,16.08,0,0,0,230,374.52a16.1,16.1,0,0,1-1-6.63c0-2.17-.44-4-2.19-5.34-5.3-4.06-8.7-10-12-15.86a47,47,0,0,1-.68,7.2,8.85,8.85,0,0,0-.21,2.29,8.3,8.3,0,0,0,.43,1.82q1.62,5,3.41,9.92c-4.82-4.42-5.53-12.45-11.05-15.95a9.89,9.89,0,0,1-1.5-1,16,16,0,0,1-1.61-2.27c-1.69-2.24-5-3-6.39-5.39l-.27,7c-3-1.24-4.08-4.25-6.1-6.49-1-1.11-4.66-5.3-6.26-3-.82,1.16,0,4,1.21,6.81a42.88,42.88,0,0,0,10.88,8.77c19.12,10.9,24.43,28.25,7.19,35s-19.16,16-27.78,15.31S151.87,416.24,151.87,416.24Z" style="fill:#fff"></path></g><path d="M248.74,374.39c.09.54.16,1.08.2,1.63A7.57,7.57,0,0,0,248.74,374.39Z" style="fill:#263238"></path><path d="M212.45,405.74a3.82,3.82,0,0,0,1.3-1.32A12.46,12.46,0,0,0,212.45,405.74Z" style="fill:#263238"></path><rect x="150.55" y="331.86" width="0.5" height="57.35" style="fill:#263238"></rect><rect x="171.99" y="331.86" width="0.5" height="57.35" style="fill:#263238"></rect><polygon points="195.13 213.96 222.73 260.75 345.31 260.75 317.72 213.96 195.13 213.96" style="fill:#1976D2"></polygon><polygon points="195.13 213.96 222.73 260.75 343.47 260.75 315.87 213.96 195.13 213.96" style="isolation:isolate;opacity:0.30000000000000004"></polygon><rect x="224.93" y="258.85" width="122.63" height="1.9" transform="translate(572.49 519.61) rotate(180)" style="fill:#1976D2"></rect><rect x="224.93" y="258.85" width="122.63" height="1.9" transform="translate(572.49 519.61) rotate(180)" style="isolation:isolate;opacity:0.30000000000000004"></rect><rect x="345.72" y="258.85" width="1.85" height="1.85" transform="translate(693.28 519.55) rotate(180)" style="fill:#1976D2"></rect><polygon points="287.37 218.8 287.37 334.67 336.32 334.67 336.32 258.56 312.87 218.8 287.37 218.8" style="fill:#1976D2"></polygon><path d="M287.37,218.8V334.67h48.95V258.56l-1.83-3.11-.33-.55-.67-1.14s0,0,0,0l-.23-.38-1.21-2-.33-.55-.54-.93-.3-.47v0l-1.27-2.16-.33-.55L327.17,243l-.33-.55-.47-.81h0l-.1-.17-1.53-2.6-.32-.54-.65-1.07v0l-.31-.52-1.16-2-.32-.55-2.12-3.59-.32-.55-1.1-1.87-.29-.49-.73-1.23-.32-.54-.86-1.46-.21-.36-1-1.77-.33-.55-1.78-3Z" style="fill:#fff;isolation:isolate;opacity:0.5"></path><rect x="178.4" y="252.69" width="108.97" height="81.98" style="fill:#1976D2"></rect><rect x="178.4" y="252.69" width="108.97" height="81.98" style="fill:#fff;isolation:isolate;opacity:0.7000000000000001"></rect><g style="opacity:0.30000000000000004"><rect x="178.4" y="263.79" width="157.82" height="0.32"></rect><path d="M336.22,270.85h-9.51c.84,0,1.67.11,2.5.21a25.68,25.68,0,0,0,4.71.27,20.79,20.79,0,0,1-4.73,0c-1.57-.14-3.14-.23-4.71-.23s-3.15,0-4.73.05l-4.73.16c1.57-.16,3.14-.3,4.72-.39l1,0H178.4v-.33H336.22Z"></path><rect x="178.4" y="277.25" width="157.82" height="0.32"></rect><rect x="178.4" y="297.43" width="157.82" height="0.32"></rect><rect x="178.4" y="304.16" width="157.82" height="0.32"></rect><rect x="178.4" y="310.88" width="157.82" height="0.32"></rect><rect x="178.4" y="317.61" width="157.82" height="0.32"></rect><path d="M298.25,279a26.4,26.4,0,0,0-3.08-.2c-1,0-2.05.1-3.08.19,1-.14,2-.28,3.08-.34a24.65,24.65,0,0,1,3.1.12,53.06,53.06,0,0,0,6.17.26l6.19-.1c1,0,2.06,0,3.1.07s2.06.16,3.08.29c-4.12-.33-8.24,0-12.37.05A49.29,49.29,0,0,1,298.25,279Z"></path><path d="M222.51,281.5a22.65,22.65,0,0,0-3.08-.2c-1,0-2.05.09-3.08.18,1-.14,2-.28,3.08-.33a24.64,24.64,0,0,1,3.1.11,50.94,50.94,0,0,0,6.17.26l6.19-.09c1,0,2.06,0,3.1.06s2.06.16,3.08.29c-4.12-.33-8.24,0-12.37.05A47.46,47.46,0,0,1,222.51,281.5Z"></path><path d="M326.25,277.07a25.65,25.65,0,0,1-3.19-.59,12.62,12.62,0,0,0-3.19-.24l-3.23.12q-3.22.12-6.47.19,3.24-.24,6.46-.42c1.08-.07,2.15-.12,3.23-.17a13.11,13.11,0,0,1,3.25.21,23.51,23.51,0,0,0,3.16.62,24.7,24.7,0,0,0,3.22,0l6.45-.39c-2.15.22-4.29.47-6.44.63A20.74,20.74,0,0,1,326.25,277.07Z"></path><path d="M323.85,268.42a13.89,13.89,0,0,1,3.22-.09c1.08.09,2.15.24,3.22.39a25,25,0,0,0,3.25.27c.94,0,1.86-.11,2.78,0v-.06a23.43,23.43,0,0,0-2.78-.15,31.74,31.74,0,0,1-3.21-.33c-1.08-.13-2.15-.29-3.25-.32A10.29,10.29,0,0,0,323.85,268.42Z"></path><path d="M326.13,266.19c1.28-.09,2.56-.16,3.84-.14-1.27.22-2.54.35-3.82.45s-2.55.16-3.84.14C323.58,266.42,324.85,266.3,326.13,266.19Z"></path><path d="M300.47,261.88h-.59c-.19,0-.37.06-.6.07-.45,0-.82-.13-1.21-.17a9.52,9.52,0,0,0-1.2,0,4.14,4.14,0,0,1,1.21-.2,10.87,10.87,0,0,1,1.19.09c.17,0,.38-.06.59,0a4,4,0,0,1,.62,0l.41.06a12.67,12.67,0,0,0,0-4.47,23.9,23.9,0,0,1-.31-4.56c.07-.77.22-1.52.34-2.26s.19-1.5.24-2.25c.1-1.51.09-3,.09-4.55a43.33,43.33,0,0,1,.15,4.56,19.52,19.52,0,0,1-.21,2.28c-.11.75-.25,1.5-.3,2.24a26.39,26.39,0,0,0,.23,4.52,11.33,11.33,0,0,1-.26,4.49c.26,0,.52.08.78.13A9.85,9.85,0,0,1,300.47,261.88Z"></path><path d="M333.74,262.4a2.2,2.2,0,0,1,1.15-.49,2.17,2.17,0,0,1,1.23.17c-.42.05-.8.08-1.19.14S334.16,262.34,333.74,262.4Z"></path><path d="M332.59,298.68c-1.28,0-2.56-.1-3.83-.25,1.28-.09,2.56-.08,3.83-.05s2.56.1,3.83.25C335.14,298.72,333.86,298.71,332.59,298.68Z"></path><path d="M295.33,295.69c-1.08,0-2.16.07-3.26.07a14.89,14.89,0,0,1,3.26-.38,9,9,0,0,1,1.64.16c.55.1,1.06.29,1.6.35a7.37,7.37,0,0,1-1.63-.12C296.4,295.72,295.87,295.69,295.33,295.69Z"></path><path d="M318.66,296.19c1.52,0,3,0,4.55.09.76.06,1.51.12,2.26.25s1.49.27,2.26.33a23.89,23.89,0,0,0,4.56-.3,13.61,13.61,0,0,1,4-.06v0a12,12,0,0,0-4.05-.15,26.46,26.46,0,0,1-4.52.24c-.75-.06-1.49-.2-2.24-.31a19.49,19.49,0,0,0-2.28-.2A41,41,0,0,0,318.66,296.19Z"></path><path d="M309.76,299.25c-.77-.06-1.51-.22-2.26-.34s-1.5-.18-2.25-.24c-1.51-.1-3-.09-4.55-.09a43.42,43.42,0,0,1,4.56-.15,19.32,19.32,0,0,1,2.28.21c.76.11,1.5.25,2.25.3a26.33,26.33,0,0,0,4.51-.23,11.21,11.21,0,0,1,4.54.28,12.43,12.43,0,0,0-4.51-.05A23.16,23.16,0,0,1,309.76,299.25Z"></path><path d="M330.08,293.48h-.91a4.72,4.72,0,0,0-.92,0,8.76,8.76,0,0,1,1.83-.25c.61-.05,1.22-.07,1.83-.1a10.28,10.28,0,0,1,3.66.3,21.19,21.19,0,0,0-3.65,0C331.31,293.47,330.7,293.48,330.08,293.48Z"></path><path d="M291.19,266.22a9.11,9.11,0,0,1,3.34.25,7.89,7.89,0,0,1-1.68,0A8.6,8.6,0,0,1,291.19,266.22Z"></path><path d="M311.27,302.88a21.81,21.81,0,0,1,2.79.2,23.83,23.83,0,0,1-2.8.11,26.17,26.17,0,0,1-2.79-.2A21.78,21.78,0,0,1,311.27,302.88Z"></path><path d="M298.23,286.45c1.67-.15,3.34-.18,5-.23s3.34,0,5,.09c-1.67.15-3.34.18-5,.22S299.91,286.55,298.23,286.45Z"></path><path d="M178.4,284v.32H336.21V284h-1.72l-1.71-.1c-.5,0-1-.08-1.47-.09A2.89,2.89,0,0,0,330,284H307a22.49,22.49,0,0,1,3.67-.25,17.18,17.18,0,0,0,4-.4c-1.33.11-2.65.07-4,.09a11.37,11.37,0,0,0-3.83.56Z"></path><path d="M293.8,273a9.2,9.2,0,0,1,3-.08,20.68,20.68,0,0,0,2.94.14,7.78,7.78,0,0,1-3,.17A29.1,29.1,0,0,0,293.8,273Z"></path><path d="M326.08,288.27c1.27,0,2.52,0,3.78.05s2.51.17,3.76.36c-1.26.05-2.52,0-3.78-.05S327.33,288.46,326.08,288.27Z"></path><path d="M178.4,290.7V291H244c.8.11,1.6.21,2.4.25a21.32,21.32,0,0,0,3.1-.12L251,291h56.09l-.33.09c.28,0,.55-.06.83-.09h28.64v-.32h-25c1.2-.09,2.4-.15,3.61-.22a21,21,0,0,0-4-.06c-.73.06-1.45.15-2.17.28H267.44l.59-.06c-.36,0-.71.05-1.07.06H260c-1.45-.05-2.89-.09-4.34-.11-1.28,0-2.55,0-3.82.11Zm66,.32h4a17.48,17.48,0,0,1-2.05.1C245.73,291.12,245.07,291.08,244.4,291Z"></path><path d="M307.32,266a50.94,50.94,0,0,0-6.17.26,24.58,24.58,0,0,1-3.1.11c-1-.05-2.06-.19-3.08-.33,1,.09,2.06.18,3.09.18a22.61,22.61,0,0,0,3.07-.2,47.46,47.46,0,0,1,6.19-.33c4.14.05,8.25.38,12.37.05-1,.13-2.05.23-3.08.29s-2.07.06-3.1.06Z"></path><path d="M277.5,293.17a24.47,24.47,0,0,0-3.16.61,12.71,12.71,0,0,1-3.25.21c-1.08,0-2.16-.1-3.24-.16q-3.23-.18-6.45-.42c2.15,0,4.31.1,6.46.18l3.23.12a12.58,12.58,0,0,0,3.19-.23,24.23,24.23,0,0,1,3.19-.59,20.74,20.74,0,0,1,3.25,0c2.16.16,4.3.4,6.44.63l-6.45-.4A22.89,22.89,0,0,0,277.5,293.17Z"></path><path d="M216.06,275.7a25.14,25.14,0,0,0-3.16.61,13.12,13.12,0,0,1-3.25.22c-1.08,0-2.15-.1-3.23-.17q-3.22-.18-6.46-.42,3.24.07,6.47.18l3.23.13a12.62,12.62,0,0,0,3.19-.24,23.93,23.93,0,0,1,3.19-.59,20.74,20.74,0,0,1,3.25,0c2.15.16,4.29.4,6.44.63l-6.45-.4A23.05,23.05,0,0,0,216.06,275.7Z"></path><path d="M245.37,299a25.14,25.14,0,0,0-3.16.61,12.65,12.65,0,0,1-3.25.21c-1.08,0-2.15-.1-3.23-.16q-3.22-.18-6.45-.42c2.15,0,4.31.1,6.46.18l3.23.12a12.58,12.58,0,0,0,3.19-.23,23.93,23.93,0,0,1,3.19-.59,20.74,20.74,0,0,1,3.25,0c2.16.16,4.3.4,6.44.63l-6.45-.4A23.05,23.05,0,0,0,245.37,299Z"></path><path d="M223.87,296.1l3.68,0a19.76,19.76,0,0,1-3.68.34,18.94,18.94,0,0,1-3.68-.33Z"></path><path d="M233.44,309.58l3.68,0a19.76,19.76,0,0,1-3.68.34,18.94,18.94,0,0,1-3.68-.33Z"></path><path d="M190.45,278.53l3.68,0a19.66,19.66,0,0,1-3.67.34,19,19,0,0,1-3.69-.33Z"></path><path d="M284.6,296a22.87,22.87,0,0,1,2.74.15,22.89,22.89,0,0,1-2.74.16,20.83,20.83,0,0,1-2.73-.16A22.71,22.71,0,0,1,284.6,296Z"></path><path d="M275.7,299.19q-2.37,0-4.74-.12c-1.57-.09-3.14-.23-4.72-.39l4.73.15c1.58.05,3.16.09,4.73.06s3.14-.1,4.71-.23a21.47,21.47,0,0,1,4.74,0,26.48,26.48,0,0,0-4.71.27A44.19,44.19,0,0,1,275.7,299.19Z"></path><path d="M277.38,303.46c1.27.1,2.55.23,3.81.44-1.28,0-2.56,0-3.84-.14s-2.55-.23-3.81-.44A37.91,37.91,0,0,1,277.38,303.46Z"></path><path d="M251.42,315.22c1.28.11,2.55.23,3.82.45-1.29,0-2.57-.05-3.84-.14s-2.55-.23-3.82-.45C248.87,315.06,250.14,315.13,251.42,315.22Z"></path><path d="M242.08,323.11c.4,0,.76-.14,1.21-.17.23,0,.41.07.6.07h.59c.4,0,.8,0,1.21,0-.4.09-.8.15-1.2.2a5.79,5.79,0,0,1-.61.05c-.22,0-.43-.05-.6-.05a10.68,10.68,0,0,1-1.19.09,4,4,0,0,1-1.2-.2A9.41,9.41,0,0,0,242.08,323.11Z"></path><path d="M283.78,309.63c.41.06.79.14,1.18.19s.78.09,1.19.14a2.25,2.25,0,0,1-1.23.17A2.11,2.11,0,0,1,283.78,309.63Z"></path><path d="M229.78,319.37c.42.06.79.14,1.18.19s.78.08,1.2.13a2.33,2.33,0,0,1-2.38-.32Z"></path><path d="M280,271.53c1.28-.16,2.55-.22,3.83-.26s2.55,0,3.83.05c-1.27.16-2.55.22-3.82.26S281.26,271.61,280,271.53Z"></path><path d="M264.85,274.46c1.09,0,2.18.08,3.25.07a14.66,14.66,0,0,0,1.62-.09,8,8,0,0,1,1.63-.11c-.55.06-1.05.25-1.6.35a9,9,0,0,1-1.64.16A15.53,15.53,0,0,1,264.85,274.46Z"></path><path d="M185.82,302.76c1.09,0,2.17.08,3.25.07.54,0,1.08,0,1.61-.08a7.37,7.37,0,0,1,1.63-.12c-.54.06-1.05.25-1.59.35a9.13,9.13,0,0,1-1.65.16A14.73,14.73,0,0,1,185.82,302.76Z"></path><path d="M203,292.73c-.75,0-1.49.19-2.24.3a19.52,19.52,0,0,1-2.28.21,43.24,43.24,0,0,1-4.56-.15c1.52,0,3,0,4.54-.09.76-.05,1.51-.12,2.25-.24s1.5-.27,2.27-.34a23.9,23.9,0,0,1,4.56.31,12.43,12.43,0,0,0,4.51-.05,11,11,0,0,1-4.53.28A26.45,26.45,0,0,0,203,292.73Z"></path><path d="M281.3,276.72a8.58,8.58,0,0,1-1.82-.25,5.51,5.51,0,0,0,.91,0h.92c.61,0,1.22,0,1.83,0a22.24,22.24,0,0,0,3.65,0,10.76,10.76,0,0,1-3.66.3Z"></path><path d="M258,278.85c1.34.13,2.67.28,4,.38s2.67.17,4,.25a21,21,0,0,1-4,0A21.51,21.51,0,0,1,258,278.85Z"></path><path d="M180.65,295.8c1.34.13,2.67.28,4,.37s2.67.18,4,.26a21,21,0,0,1-4,.05A21.51,21.51,0,0,1,180.65,295.8Z"></path><path d="M282.6,269.53a8.6,8.6,0,0,1,1.66-.28,7.89,7.89,0,0,1,1.68,0,9.11,9.11,0,0,1-3.34.25Z"></path><path d="M281.74,266.61a23.83,23.83,0,0,1,2.8.11,25.27,25.27,0,0,1-5.59.09A26.17,26.17,0,0,1,281.74,266.61Z"></path><path d="M249.46,283.51c1.67-.11,3.34-.09,5-.09s3.34.08,5,.23c-1.67.1-3.35.09-5,.08S251.12,283.66,249.46,283.51Z"></path><path d="M189.12,288.63c1.67-.1,3.34-.09,5-.08s3.34.07,5,.22c-1.67.1-3.34.09-5,.08S190.79,288.78,189.12,288.63Z"></path><path d="M261.91,286.23a16.13,16.13,0,0,1,4,.4c-1.33-.12-2.64-.07-4-.09a11.47,11.47,0,0,1-3.94-.6A21.76,21.76,0,0,0,261.91,286.23Z"></path><path d="M249.33,288.54a29.1,29.1,0,0,0,2.94-.23,8,8,0,0,1,3,.17,20.54,20.54,0,0,0-2.94.14A9.25,9.25,0,0,1,249.33,288.54Z"></path><path d="M209.05,302.68a29.1,29.1,0,0,0,2.94-.23,7.76,7.76,0,0,1,3,.17,19.11,19.11,0,0,0-2.93.14A9.25,9.25,0,0,1,209.05,302.68Z"></path><path d="M281.08,285.93a4.1,4.1,0,0,0,1.44,0c.47-.06,1-.13,1.46-.16a12,12,0,0,1,2.93.15c-1,.06-2,.09-2.91.15-.49,0-1,.09-1.46.09A2.82,2.82,0,0,1,281.08,285.93Z"></path><path d="M277.31,281.68c1.25-.18,2.5-.28,3.76-.35s2.51-.1,3.77-.05c-1.25.19-2.5.28-3.76.36S278.57,281.74,277.31,281.68Z"></path><polygon points="331.73 250.77 332.05 251.32 332.05 260.18 331.73 260.18 331.73 250.77"></polygon><polygon points="326.84 242.49 327.17 243.04 327.17 260.18 326.84 260.18 326.84 242.49"></polygon><polygon points="321.97 234.22 322.29 234.77 322.29 260.18 321.97 260.18 321.97 234.22"></polygon><polygon points="317.09 225.95 317.41 226.49 317.41 260.18 317.09 260.18 317.09 225.95"></polygon><rect x="312.21" y="218.8" width="0.33" height="41.38"></rect><rect x="307.33" y="218.8" width="0.32" height="41.38"></rect><rect x="302.45" y="218.8" width="0.33" height="41.38"></rect><rect x="297.58" y="218.8" width="0.33" height="41.38"></rect><rect x="292.7" y="218.8" width="0.32" height="41.38"></rect><polygon points="334.16 254.9 334.49 255.45 334.49 260.18 334.16 260.18 334.16 254.9"></polygon><path d="M318.17,241.77c.33-4.12,0-8.24-.05-12.37,0-.56,0-1.12,0-1.68l.29.49c0,.39,0,.79,0,1.19l.09,6.18c0,1,0,2.07-.06,3.1S318.3,240.74,318.17,241.77Z"></path><path d="M320.7,251.23a22.91,22.91,0,0,0-.05,3.21l.4,6.46c-.23-2.15-.47-4.29-.63-6.45a20.74,20.74,0,0,1,0-3.25A24.23,24.23,0,0,1,321,248a13,13,0,0,0,.23-3.18l-.12-3.23c-.08-2.16-.14-4.31-.18-6.47.15,2.15.3,4.3.42,6.46.06,1.07.12,2.15.16,3.23a13.14,13.14,0,0,1-.21,3.25A23.17,23.17,0,0,0,320.7,251.23Z"></path><path d="M323.46,237.88v-1.14l.31.52v0c0,.19,0,.39,0,.59a19.66,19.66,0,0,1-.34,3.67Z"></path><path d="M323.55,258.33a20.82,20.82,0,0,1,.15-2.73,23.46,23.46,0,0,1,0,5.47A22.76,22.76,0,0,1,323.55,258.33Z"></path><path d="M326.15,258.88a22.09,22.09,0,0,1,0-4.74c.14-1.56.23-3.13.24-4.71s0-3.15-.06-4.72l-.1-3.21.1.17h0c.09,1,.17,2,.23,3q.13,2.37.12,4.74a46.93,46.93,0,0,1-.3,4.74A26.54,26.54,0,0,0,326.15,258.88Z"></path><path d="M330.88,249.37l.3.47c0,.41.08.83.11,1.24.1,1.28.16,2.56.14,3.85-.22-1.27-.34-2.54-.44-3.82C330.94,250.53,330.91,250,330.88,249.37Z"></path><path d="M333.46,255.05a4.21,4.21,0,0,1,0,.62c-.05.4-.11.8-.2,1.2,0-.41,0-.81,0-1.21v-.59c0-.19-.06-.38-.07-.6,0-.41.12-.75.16-1.11l.23.38s0,0,0,0c0,.24-.07.48-.08.69S333.47,254.84,333.46,255.05Z"></path><path d="M298.85,261.38c-.08-1.29-.08-2.56-.05-3.84s.1-2.55.25-3.83c.09,1.28.08,2.56.06,3.84S299,260.1,298.85,261.38Z"></path><path d="M301.86,245.08a7.37,7.37,0,0,1,.11-1.63c.06-.54.08-1.08.09-1.61,0-1.08-.07-2.16-.07-3.26a14.88,14.88,0,0,1,.37,3.26,9,9,0,0,1-.15,1.64C302.11,244,301.92,244.53,301.86,245.08Z"></path><path d="M304,256.87c0-.61,0-1.22,0-1.83v-.92a4.59,4.59,0,0,0,0-.91,8.06,8.06,0,0,1,.25,1.82c.05.61.08,1.22.1,1.83a10.51,10.51,0,0,1-.29,3.66A22.24,22.24,0,0,0,304,256.87Z"></path><path d="M306.75,235.71c-.1-1.34-.24-2.67-.38-4a20.73,20.73,0,0,1,.69,4,21.08,21.08,0,0,1-.05,4C306.93,238.38,306.86,237,306.75,235.71Z"></path><path d="M296.81,259.67a7.88,7.88,0,0,1,0-1.68,7.3,7.3,0,0,1,.28-1.66,8.59,8.59,0,0,1,0,1.68A7.88,7.88,0,0,1,296.81,259.67Z"></path><path d="M294.14,255.47a23.79,23.79,0,0,1,.2-2.79,25.27,25.27,0,0,1-.09,5.59A23.75,23.75,0,0,1,294.14,255.47Z"></path><path d="M311,228.2c0-1.67,0-3.34.08-5,.16,1.66.19,3.34.23,5s0,3.35-.08,5C311,231.55,311,229.88,311,228.2Z"></path><path d="M313.47,231.69a11.49,11.49,0,0,1,.6,3.95c0,1.33,0,2.64.09,4a16.08,16.08,0,0,1-.4-4A22.77,22.77,0,0,0,313.47,231.69Z"></path><path d="M316,229a7.82,7.82,0,0,1-.17-3c.06-.62.14-1.24.18-1.87l.21.36c0,.52,0,1-.08,1.54A19.24,19.24,0,0,0,316,229Z"></path><path d="M313.69,256.27c0,.5-.06,1-.09,1.46-.07,1-.09,1.93-.15,2.91a12,12,0,0,1-.15-2.93c0-.49.09-1,.16-1.46a4.1,4.1,0,0,0,0-1.44A2.92,2.92,0,0,1,313.69,256.27Z"></path><path d="M308.81,258.57c-.05-1.26,0-2.52.05-3.77s.17-2.51.35-3.76a36.44,36.44,0,0,1,0,3.77C309.09,256.07,309,257.32,308.81,258.57Z"></path></g><rect x="139.44" y="302.1" width="148.83" height="0.5" style="fill:#263238"></rect><rect x="139.44" y="305.65" width="148.83" height="0.5" style="fill:#263238"></rect><rect x="139.44" y="309.21" width="148.83" height="0.5" style="fill:#263238"></rect><rect x="139.44" y="312.76" width="148.83" height="0.5" style="fill:#263238"></rect><rect x="139.44" y="316.32" width="148.83" height="0.5" style="fill:#263238"></rect><rect x="139.44" y="319.88" width="148.83" height="0.5" style="fill:#263238"></rect><rect x="293.49" y="266.92" width="35.9" height="57.1" transform="translate(622.88 590.94) rotate(180)" style="fill:#1976D2"></rect><rect x="294.68" y="268.08" width="33.51" height="55.94" style="isolation:isolate;opacity:0.5"></rect><rect x="138.15" y="271.46" width="2.11" height="53.02" transform="translate(278.41 595.93) rotate(180)" style="fill:#1976D2"></rect><rect x="287.2" y="297.51" width="2.11" height="30.23" style="fill:#1976D2"></rect><rect x="139.42" y="297.51" width="149.89" height="2.11" style="fill:#1976D2"></rect><polygon points="316.51 268.08 328.2 309.33 328.2 292.7 321.22 268.08 316.51 268.08" style="fill:#fff;isolation:isolate;opacity:0.2"></polygon><polygon points="312.78 268.08 328.2 322.51 328.2 317.54 314.19 268.08 312.78 268.08" style="fill:#fff;isolation:isolate;opacity:0.2"></polygon><polygon points="308.17 268.08 323.99 323.92 324.69 323.92 308.87 268.08 308.17 268.08" style="fill:#fff;isolation:isolate;opacity:0.2"></polygon><polygon points="294.69 298.36 294.69 314.99 297.21 323.92 301.93 323.92 294.69 298.36" style="fill:#fff;isolation:isolate;opacity:0.2"></polygon><polygon points="294.69 285.19 294.69 290.15 304.25 323.92 305.66 323.92 294.69 285.19" style="fill:#fff;isolation:isolate;opacity:0.2"></polygon><polygon points="294.69 268.92 294.69 271.42 309.56 323.92 310.26 323.92 294.69 268.92" style="fill:#fff;isolation:isolate;opacity:0.2"></polygon><rect x="316.82" y="266.92" width="0.54" height="57.1" transform="translate(634.17 590.94) rotate(180)" style="fill:#1976D2"></rect><rect x="305.53" y="266.92" width="0.54" height="57.1" transform="translate(611.59 590.94) rotate(180)" style="fill:#1976D2"></rect><polygon points="311.44 240.01 319.37 253.59 303.52 253.59 311.44 240.01" style="fill:#1976D2"></polygon><polygon points="305.48 252.46 317.4 252.46 316.49 250.89 311.44 242.25 310.01 244.7 308.45 247.38 307.5 249 305.48 252.46" style="isolation:isolate;opacity:0.5"></polygon><polygon points="310.01 244.7 312.21 252.46 316.93 252.46 316.49 250.89 311.44 242.25 310.01 244.7" style="fill:#fff;isolation:isolate;opacity:0.2"></polygon><polygon points="307.5 249 308.48 252.46 309.89 252.46 308.45 247.38 307.5 249" style="fill:#fff;isolation:isolate;opacity:0.2"></polygon><rect x="311.17" y="241.75" width="0.54" height="11.24" style="fill:#1976D2"></rect><rect x="253.52" y="266.92" width="24.61" height="24.7" transform="translate(531.66 558.55) rotate(180)" style="fill:#1976D2"></rect><rect x="254.71" y="268.08" width="22.22" height="22.27" style="isolation:isolate;opacity:0.5"></rect><rect x="265.56" y="267.11" width="0.54" height="23.96" style="fill:#1976D2"></rect><polygon points="270.83 268.08 276.94 289.64 276.94 273.01 275.54 268.08 270.83 268.08" style="fill:#fff;isolation:isolate;opacity:0.2"></polygon><polygon points="267.09 268.08 273.41 290.35 274.81 290.35 268.5 268.08 267.09 268.08" style="fill:#fff;isolation:isolate;opacity:0.2"></polygon><polygon points="262.49 268.08 268.8 290.35 269.5 290.35 263.19 268.08 262.49 268.08" style="fill:#fff;isolation:isolate;opacity:0.2"></polygon><polygon points="254.71 289.08 254.71 290.35 255.07 290.35 254.71 289.08" style="fill:#fff;isolation:isolate;opacity:0.2"></polygon><rect x="221.16" y="266.92" width="24.61" height="24.7" style="fill:#1976D2"></rect><rect x="222.36" y="268.2" width="22.22" height="22.27" style="isolation:isolate;opacity:0.5"></rect><rect x="233.2" y="267.48" width="0.54" height="23.96" style="fill:#1976D2"></rect><polygon points="228.47 290.47 222.36 268.91 222.36 285.54 223.76 290.47 228.47 290.47" style="fill:#fff;isolation:isolate;opacity:0.2"></polygon><polygon points="232.2 290.47 225.89 268.2 224.48 268.2 230.79 290.47 232.2 290.47" style="fill:#fff;isolation:isolate;opacity:0.2"></polygon><polygon points="236.81 290.47 230.49 268.2 229.79 268.2 236.11 290.47 236.81 290.47" style="fill:#fff;isolation:isolate;opacity:0.2"></polygon><polygon points="244.58 269.47 244.58 268.2 244.22 268.2 244.58 269.47" style="fill:#fff;isolation:isolate;opacity:0.2"></polygon><rect x="188.8" y="266.92" width="24.61" height="24.7" transform="translate(402.21 558.55) rotate(180)" style="fill:#1976D2"></rect><rect x="189.99" y="268.08" width="22.22" height="22.27" style="isolation:isolate;opacity:0.5"></rect><rect x="200.83" y="267.11" width="0.54" height="23.96" style="fill:#1976D2"></rect><polygon points="206.1 268.08 212.21 289.64 212.21 273.01 210.81 268.08 206.1 268.08" style="fill:#fff;isolation:isolate;opacity:0.2"></polygon><polygon points="202.37 268.08 208.68 290.35 210.09 290.35 203.78 268.08 202.37 268.08" style="fill:#fff;isolation:isolate;opacity:0.2"></polygon><polygon points="197.76 268.08 204.08 290.35 204.78 290.35 198.46 268.08 197.76 268.08" style="fill:#fff;isolation:isolate;opacity:0.2"></polygon><polygon points="189.99 289.08 189.99 290.35 190.35 290.35 189.99 289.08" style="fill:#fff;isolation:isolate;opacity:0.2"></polygon><rect x="258.71" y="297.51" width="2.11" height="30.23" style="fill:#1976D2"></rect><rect x="228.57" y="297.51" width="2.11" height="30.23" transform="translate(459.25 625.25) rotate(180)" style="fill:#1976D2"></rect><rect x="198.43" y="297.51" width="2.11" height="30.23" transform="translate(398.97 625.25) rotate(180)" style="fill:#1976D2"></rect><rect x="168.29" y="297.51" width="2.11" height="30.23" transform="translate(338.69 625.25) rotate(180)" style="fill:#1976D2"></rect><polygon points="259.76 297.51 259.76 327.74 260.82 327.74 260.82 299.62 287.2 299.62 287.2 327.74 289.31 327.74 289.31 297.51 259.76 297.51" style="isolation:isolate;opacity:0.2"></polygon><rect x="341.72" y="302.1" width="28.22" height="0.5" style="fill:#263238"></rect><rect x="341.72" y="305.65" width="28.22" height="0.5" style="fill:#263238"></rect><rect x="341.72" y="309.21" width="28.22" height="0.5" style="fill:#263238"></rect><rect x="341.72" y="312.76" width="28.22" height="0.5" style="fill:#263238"></rect><rect x="341.72" y="316.32" width="28.22" height="0.5" style="fill:#263238"></rect><rect x="341.72" y="319.88" width="28.22" height="0.5" style="fill:#263238"></rect><rect x="368.87" y="297.51" width="2.11" height="30.23" style="fill:#1976D2"></rect><rect x="340.38" y="297.51" width="30.6" height="2.11" style="fill:#1976D2"></rect><rect x="340.38" y="297.51" width="2.11" height="30.23" style="fill:#1976D2"></rect><polygon points="341.44 297.51 341.44 327.74 342.49 327.74 342.49 299.62 368.87 299.62 368.87 327.74 370.98 327.74 370.98 297.51 341.44 297.51" style="isolation:isolate;opacity:0.2"></polygon><rect x="134.83" y="323.58" width="240.05" height="11.17" style="fill:#1976D2"></rect><rect x="134.83" y="323.58" width="240.05" height="11.17" style="isolation:isolate;opacity:0.2"></rect><rect x="259.67" y="323.58" width="115.21" height="11.17" style="isolation:isolate;opacity:0.2"></rect><rect x="133.2" y="323.19" width="242.9" height="1.66" transform="translate(509.31 648.04) rotate(180)" style="fill:#1976D2"></rect><rect x="259.76" y="323.19" width="116.34" height="1.66" style="isolation:isolate;opacity:0.2"></rect><polygon points="167.58 260.82 290.17 260.82 317.76 214.01 195.18 214.01 167.58 260.82" style="fill:#1976D2"></polygon><polygon points="167.58 260.82 288.32 260.82 315.92 214.01 195.18 214.01 167.58 260.82" style="fill:#fff;isolation:isolate;opacity:0.2"></polygon><polygon points="127.58 273.71 250.58 273.71 290.58 260.79 167.58 260.79 127.58 272.48 127.58 273.71" style="fill:#1976D2"></polygon><polygon points="127.58 273.71 250.58 273.71 290.58 260.79 167.58 260.79 127.58 272.48 127.58 273.71" style="fill:#fff;isolation:isolate;opacity:0.2"></polygon><rect x="195.13" y="212.06" width="122.63" height="1.9" transform="translate(512.89 426.02) rotate(180)" style="fill:#1976D2"></rect><rect x="315.92" y="212.06" width="1.85" height="1.85" transform="translate(633.68 425.96) rotate(180)" style="fill:#fff;isolation:isolate;opacity:0.2"></rect><path d="M304.88,213a10.5,10.5,0,0,1-.75,1.5l-.84,1.46-1.7,2.91-3.41,5.81-6.82,11.62-6.74,11.66-3.34,5.85L278,259.67c1.2-1.9,2.36-3.82,3.55-5.73l3.49-5.76c2.31-3.85,4.58-7.73,6.86-11.59s4.5-7.78,6.7-11.7l3.26-5.89,1.59-3A26.37,26.37,0,0,0,304.88,213Z" style="isolation:isolate;opacity:0.2"></path><path d="M292.57,213a11.72,11.72,0,0,1-.76,1.5l-.83,1.46-1.71,2.91-3.41,5.81L279,236.28l-6.74,11.66L269,253.79l-3.29,5.88c1.2-1.9,2.37-3.82,3.55-5.73l3.49-5.76c2.31-3.85,4.58-7.73,6.86-11.59s4.5-7.78,6.7-11.7l3.27-5.89,1.58-3A28.21,28.21,0,0,0,292.57,213Z" style="isolation:isolate;opacity:0.2"></path><path d="M280.25,213a11.72,11.72,0,0,1-.76,1.5l-.83,1.46-1.7,2.91-3.42,5.81-6.82,11.62L260,247.94l-3.34,5.85-3.29,5.88c1.2-1.9,2.37-3.82,3.55-5.73l3.49-5.76c2.31-3.85,4.58-7.73,6.86-11.59s4.5-7.78,6.7-11.7l3.27-5.89,1.58-3A28.21,28.21,0,0,0,280.25,213Z" style="isolation:isolate;opacity:0.2"></path><path d="M267.93,213a11.72,11.72,0,0,1-.76,1.5l-.83,1.46-1.7,2.91-3.42,5.81-6.82,11.62-6.74,11.66-3.34,5.85L241,259.67c1.2-1.9,2.37-3.82,3.55-5.73l3.49-5.76c2.31-3.85,4.58-7.73,6.86-11.59s4.5-7.78,6.7-11.7L264.9,219l1.58-3A26.44,26.44,0,0,0,267.93,213Z" style="isolation:isolate;opacity:0.2"></path><path d="M255.61,213a11.72,11.72,0,0,1-.76,1.5l-.83,1.46-1.7,2.91-3.42,5.81-6.82,11.62-6.74,11.66L232,253.79l-3.29,5.88c1.2-1.9,2.37-3.82,3.55-5.73l3.49-5.76c2.31-3.85,4.58-7.73,6.86-11.59s4.51-7.78,6.7-11.7l3.27-5.89,1.58-3A24.87,24.87,0,0,0,255.61,213Z" style="isolation:isolate;opacity:0.2"></path><path d="M243.29,213a11.72,11.72,0,0,1-.76,1.5l-.83,1.46-1.7,2.91-3.42,5.81-6.82,11.62L223,247.94l-3.34,5.85-3.29,5.88c1.2-1.9,2.37-3.82,3.55-5.73l3.49-5.76c2.31-3.85,4.58-7.73,6.86-11.59s4.51-7.78,6.7-11.7l3.27-5.89,1.58-3A24.87,24.87,0,0,0,243.29,213Z" style="isolation:isolate;opacity:0.2"></path><path d="M231,213a10.55,10.55,0,0,1-.76,1.5l-.83,1.46-1.7,2.91-3.42,5.81-6.82,11.62-6.74,11.66-3.34,5.85-3.29,5.88c1.2-1.9,2.37-3.82,3.55-5.73l3.49-5.76c2.31-3.85,4.58-7.73,6.87-11.59s4.5-7.78,6.69-11.7l3.27-5.89,1.58-3A24.87,24.87,0,0,0,231,213Z" style="isolation:isolate;opacity:0.2"></path><path d="M218.65,213a10.55,10.55,0,0,1-.76,1.5l-.83,1.46-1.7,2.91L212,224.66l-6.82,11.62-6.75,11.66L195,253.79l-3.29,5.88c1.2-1.9,2.37-3.82,3.55-5.73l3.49-5.76c2.32-3.85,4.58-7.73,6.87-11.59s4.5-7.78,6.69-11.7l3.27-5.89,1.58-3A24.87,24.87,0,0,0,218.65,213Z" style="isolation:isolate;opacity:0.2"></path><path d="M206.33,213a10.55,10.55,0,0,1-.76,1.5l-.83,1.46-1.7,2.91-3.41,5.81-6.82,11.62-6.75,11.66-3.34,5.85-3.29,5.88c1.2-1.9,2.37-3.82,3.55-5.73l3.49-5.76c2.32-3.85,4.58-7.73,6.87-11.59s4.5-7.78,6.69-11.7L203.3,219l1.58-3A24.87,24.87,0,0,0,206.33,213Z" style="isolation:isolate;opacity:0.2"></path><rect x="191.69" y="217.85" width="122.63" height="1.9" transform="translate(506.01 437.6) rotate(180)" style="fill:#1976D2"></rect><rect x="312.48" y="217.85" width="1.85" height="1.85" transform="translate(626.8 437.54) rotate(180)" style="fill:#fff;isolation:isolate;opacity:0.2"></rect><rect x="188.25" y="223.64" width="122.63" height="1.9" transform="translate(499.13 449.18) rotate(180)" style="fill:#1976D2"></rect><rect x="309.03" y="223.64" width="1.85" height="1.85" transform="translate(619.91 449.12) rotate(180)" style="fill:#fff;isolation:isolate;opacity:0.2"></rect><rect x="184.81" y="229.43" width="122.63" height="1.9" transform="translate(492.25 460.76) rotate(180)" style="fill:#1976D2"></rect><rect x="305.59" y="229.43" width="1.85" height="1.85" transform="translate(613.03 460.7) rotate(180)" style="fill:#fff;isolation:isolate;opacity:0.2"></rect><rect x="181.37" y="235.22" width="122.63" height="1.9" transform="translate(485.36 472.34) rotate(180)" style="fill:#1976D2"></rect><rect x="302.15" y="235.22" width="1.85" height="1.85" transform="translate(606.15 472.28) rotate(180)" style="fill:#fff;isolation:isolate;opacity:0.2"></rect><rect x="177.93" y="241.01" width="122.63" height="1.9" transform="translate(478.48 483.92) rotate(180)" style="fill:#1976D2"></rect><rect x="298.71" y="241.01" width="1.85" height="1.85" transform="translate(599.27 483.87) rotate(180)" style="fill:#fff;isolation:isolate;opacity:0.2"></rect><rect x="174.48" y="246.8" width="122.63" height="1.9" transform="translate(471.6 495.5) rotate(180)" style="fill:#1976D2"></rect><rect x="295.27" y="246.8" width="1.85" height="1.85" transform="translate(592.38 495.45) rotate(180)" style="fill:#fff;isolation:isolate;opacity:0.2"></rect><rect x="171.04" y="252.59" width="122.63" height="1.9" transform="translate(464.72 507.08) rotate(180)" style="fill:#1976D2"></rect><rect x="291.83" y="252.59" width="1.85" height="1.85" transform="translate(585.5 507.03) rotate(180)" style="fill:#fff;isolation:isolate;opacity:0.2"></rect><rect x="165.93" y="258.85" width="128.16" height="1.9" transform="translate(460.03 519.61) rotate(180)" style="fill:#1976D2"></rect><rect x="292.25" y="258.85" width="1.85" height="1.85" transform="translate(586.35 519.55) rotate(180)" style="fill:#fff;isolation:isolate;opacity:0.2"></rect><polygon points="127.58 272.48 250.58 272.48 290.58 259.56 167.58 259.56 127.58 272.48" style="fill:#1976D2"></polygon><polygon points="134.66 271.46 250.16 271.46 253.52 270.38 254.71 269.99 260.62 268.08 264.2 266.92 280.14 261.77 164.63 261.77 134.66 271.46" style="fill:#fff;isolation:isolate;opacity:0.5"></polygon><polygon points="253.52 266.92 253.52 270.38 254.71 269.99 260.62 268.08 264.2 266.92 253.52 266.92" style="fill:#1976D2;isolation:isolate;opacity:0.5"></polygon><polygon points="254.71 268.08 254.71 269.99 260.62 268.08 254.71 268.08" style="isolation:isolate;opacity:0.2"></polygon><rect x="221.16" y="266.92" width="24.61" height="4.54" style="fill:#1976D2;isolation:isolate;opacity:0.5"></rect><rect x="233.74" y="268.2" width="10.85" height="3.26" style="isolation:isolate;opacity:0.2"></rect><rect x="222.36" y="268.2" width="10.84" height="3.26" style="isolation:isolate;opacity:0.2"></rect><rect x="188.8" y="266.92" width="24.61" height="4.54" style="fill:#1976D2;isolation:isolate;opacity:0.5"></rect><rect x="201.38" y="268.08" width="10.84" height="3.38" style="isolation:isolate;opacity:0.2"></rect><rect x="189.99" y="268.08" width="10.85" height="3.38" style="isolation:isolate;opacity:0.2"></rect><polygon points="134.66 271.46 178.4 271.46 178.4 261.77 164.63 261.77 134.66 271.46" style="fill:#fff;opacity:0.5"></polygon><rect x="230.98" y="265.89" width="36.63" height="1" transform="translate(-69.88 89.64) rotate(-17.92)" style="fill:#1976D2"></rect><rect x="213.98" y="265.89" width="36.63" height="1" transform="translate(-70.7 84.4) rotate(-17.92)" style="fill:#1976D2"></rect><rect x="196.96" y="265.89" width="36.63" height="1" transform="translate(-71.53 79.17) rotate(-17.92)" style="fill:#1976D2"></rect><rect x="179.94" y="265.89" width="36.63" height="1" transform="translate(-72.35 73.93) rotate(-17.92)" style="fill:#1976D2"></rect><rect x="162.93" y="265.89" width="36.63" height="1" transform="translate(-73.18 68.7) rotate(-17.92)" style="fill:#1976D2"></rect><rect x="145.91" y="265.89" width="36.63" height="1" transform="translate(-74 63.46) rotate(-17.92)" style="fill:#1976D2"></rect><rect x="153.63" y="264.37" width="118.69" height="1" style="fill:#1976D2"></rect><rect x="142.76" y="267.7" width="119.32" height="1" style="fill:#1976D2"></rect><polygon points="302.33 370.87 303.37 371.94 344.94 328.87 346.38 330.26 304.76 373.38 344.38 414.43 342.94 415.82 300.9 372.26 302.33 370.87" style="fill:#263238"></polygon><polygon points="262.33 370.87 263.37 371.94 304.94 328.87 306.38 330.26 264.76 373.38 304.38 414.43 302.94 415.82 260.9 372.26 262.33 370.87" style="fill:#263238"></polygon><g style="isolation:isolate;opacity:0.5"><polygon points="302.33 370.87 303.37 371.94 344.94 328.87 346.38 330.26 304.76 373.38 344.38 414.43 342.94 415.82 300.9 372.26 302.33 370.87" style="fill:#fff"></polygon><polygon points="262.33 370.87 263.37 371.94 304.94 328.87 306.38 330.26 264.76 373.38 304.38 414.43 302.94 415.82 260.9 372.26 262.33 370.87" style="fill:#fff"></polygon></g><rect x="232.48" y="369.68" width="54.97" height="4.58" transform="translate(519.92 743.93) rotate(180)" style="fill:#1976D2"></rect><rect x="271.02" y="369.68" width="16.43" height="4.58" transform="translate(558.47 743.93) rotate(180)" style="isolation:isolate;opacity:0.2"></rect><rect x="229.91" y="369.68" width="58.56" height="1.58" transform="translate(518.39 740.93) rotate(180)" style="fill:#1976D2"></rect><rect x="229.91" y="369.68" width="58.56" height="1.58" transform="translate(518.39 740.93) rotate(180)" style="fill:#fff;isolation:isolate;opacity:0.7000000000000001"></rect><rect x="269.57" y="369.68" width="18.9" height="1.58" transform="translate(558.05 740.93) rotate(180)" style="isolation:isolate;opacity:0.2"></rect><rect x="286.18" y="337.28" width="54.97" height="4.58" transform="translate(627.33 679.13) rotate(180)" style="fill:#1976D2"></rect><rect x="324.72" y="337.28" width="16.43" height="4.58" transform="translate(665.87 679.13) rotate(180)" style="isolation:isolate;opacity:0.2"></rect><rect x="283.62" y="337.28" width="58.56" height="1.58" transform="translate(625.79 676.14) rotate(180)" style="fill:#1976D2"></rect><rect x="283.62" y="337.28" width="58.56" height="1.58" transform="translate(625.79 676.14) rotate(180)" style="fill:#fff;isolation:isolate;opacity:0.7000000000000001"></rect><rect x="323.28" y="337.28" width="18.9" height="1.58" transform="translate(665.45 676.14) rotate(180)" style="isolation:isolate;opacity:0.2"></rect><rect x="276.18" y="347.88" width="54.97" height="4.58" transform="translate(607.33 700.33) rotate(180)" style="fill:#1976D2"></rect><rect x="314.72" y="347.88" width="16.43" height="4.58" transform="translate(645.87 700.33) rotate(180)" style="isolation:isolate;opacity:0.2"></rect><rect x="273.62" y="347.88" width="58.56" height="1.58" transform="translate(605.79 697.34) rotate(180)" style="fill:#1976D2"></rect><rect x="273.62" y="347.88" width="58.56" height="1.58" transform="translate(605.79 697.34) rotate(180)" style="fill:#fff;isolation:isolate;opacity:0.7000000000000001"></rect><rect x="313.28" y="347.88" width="18.9" height="1.58" transform="translate(645.45 697.34) rotate(180)" style="isolation:isolate;opacity:0.2"></rect><rect x="266.18" y="358.48" width="54.97" height="4.58" transform="translate(587.33 721.53) rotate(180)" style="fill:#1976D2"></rect><rect x="304.72" y="358.48" width="16.43" height="4.58" transform="translate(625.87 721.53) rotate(180)" style="isolation:isolate;opacity:0.2"></rect><rect x="263.62" y="358.48" width="58.56" height="1.58" transform="translate(585.79 718.53) rotate(180)" style="fill:#1976D2"></rect><rect x="263.62" y="358.48" width="58.56" height="1.58" transform="translate(585.79 718.53) rotate(180)" style="fill:#fff;isolation:isolate;opacity:0.7000000000000001"></rect><rect x="303.28" y="358.48" width="18.9" height="1.58" transform="translate(625.45 718.53) rotate(180)" style="isolation:isolate;opacity:0.2"></rect><rect x="264.65" y="380.13" width="54.97" height="4.58" style="fill:#1976D2"></rect><rect x="281.07" y="380.13" width="38.54" height="4.58" transform="translate(600.69 764.83) rotate(180)" style="isolation:isolate;opacity:0.2"></rect><rect x="263.62" y="380.13" width="58.56" height="1.58" style="fill:#1976D2"></rect><rect x="263.62" y="380.13" width="58.56" height="1.58" style="fill:#fff;isolation:isolate;opacity:0.7000000000000001"></rect><rect x="282.52" y="380.13" width="39.66" height="1.58" transform="translate(604.7 761.83) rotate(180)" style="isolation:isolate;opacity:0.2"></rect><rect x="318.31" y="327.28" width="54.97" height="4.58" style="fill:#1976D2"></rect><rect x="334.73" y="327.28" width="38.54" height="4.58" transform="translate(708.01 659.13) rotate(180)" style="isolation:isolate;opacity:0.2"></rect><rect x="317.28" y="327.28" width="58.56" height="1.58" style="fill:#1976D2"></rect><rect x="317.28" y="327.28" width="58.56" height="1.58" style="fill:#fff;isolation:isolate;opacity:0.7000000000000001"></rect><rect x="336.18" y="327.28" width="39.66" height="1.58" transform="translate(712.02 656.14) rotate(180)" style="isolation:isolate;opacity:0.2"></rect><rect x="294.65" y="411.48" width="54.97" height="4.58" style="fill:#1976D2"></rect><rect x="311.07" y="411.48" width="38.54" height="4.58" transform="translate(660.69 827.53) rotate(180)" style="isolation:isolate;opacity:0.2"></rect><rect x="293.62" y="411.48" width="58.56" height="1.58" style="fill:#1976D2"></rect><rect x="293.62" y="411.48" width="58.56" height="1.58" style="fill:#fff;isolation:isolate;opacity:0.7000000000000001"></rect><rect x="312.52" y="411.48" width="39.66" height="1.58" transform="translate(664.7 824.53) rotate(180)" style="isolation:isolate;opacity:0.2"></rect><rect x="284.65" y="401.03" width="54.97" height="4.58" style="fill:#1976D2"></rect><rect x="301.07" y="401.03" width="38.54" height="4.58" transform="translate(640.69 806.63) rotate(180)" style="isolation:isolate;opacity:0.2"></rect><rect x="283.62" y="401.03" width="58.56" height="1.58" style="fill:#1976D2"></rect><rect x="283.62" y="401.03" width="58.56" height="1.58" style="fill:#fff;isolation:isolate;opacity:0.7000000000000001"></rect><rect x="302.52" y="401.03" width="39.66" height="1.58" transform="translate(644.7 803.63) rotate(180)" style="isolation:isolate;opacity:0.2"></rect><rect x="274.65" y="390.58" width="54.97" height="4.58" style="fill:#1976D2"></rect><rect x="291.07" y="390.58" width="38.54" height="4.58" transform="translate(620.69 785.73) rotate(180)" style="isolation:isolate;opacity:0.2"></rect><rect x="273.62" y="390.58" width="58.56" height="1.58" style="fill:#1976D2"></rect><rect x="273.62" y="390.58" width="58.56" height="1.58" style="fill:#fff;isolation:isolate;opacity:0.7000000000000001"></rect><rect x="292.52" y="390.58" width="39.66" height="1.58" transform="translate(624.7 782.73) rotate(180)" style="isolation:isolate;opacity:0.2"></rect><rect x="254.65" y="369.68" width="54.97" height="4.58" style="fill:#1976D2"></rect><rect x="271.07" y="369.68" width="38.54" height="4.58" transform="translate(580.69 743.93) rotate(180)" style="isolation:isolate;opacity:0.2"></rect><rect x="253.62" y="369.68" width="58.56" height="1.58" style="fill:#1976D2"></rect><rect x="253.62" y="369.68" width="58.56" height="1.58" style="fill:#fff;isolation:isolate;opacity:0.7000000000000001"></rect><rect x="272.52" y="369.68" width="39.66" height="1.58" transform="translate(584.7 740.93) rotate(180)" style="isolation:isolate;opacity:0.2"></rect><rect x="296.18" y="327.28" width="54.97" height="4.58" transform="translate(647.33 659.13) rotate(180)" style="fill:#1976D2"></rect><rect x="334.72" y="327.28" width="16.43" height="4.58" transform="translate(685.87 659.13) rotate(180)" style="isolation:isolate;opacity:0.2"></rect><rect x="293.62" y="327.28" width="58.56" height="1.58" transform="translate(645.79 656.14) rotate(180)" style="fill:#1976D2"></rect><rect x="293.62" y="327.28" width="58.56" height="1.58" transform="translate(645.79 656.14) rotate(180)" style="fill:#fff;isolation:isolate;opacity:0.7000000000000001"></rect><rect x="333.28" y="327.28" width="18.9" height="1.58" transform="translate(685.45 656.14) rotate(180)" style="isolation:isolate;opacity:0.2"></rect><rect x="142.76" y="388.19" width="35.64" height="3.97" style="fill:#1976D2"></rect><rect x="142.76" y="388.19" width="35.64" height="3.97" style="fill:#fff;isolation:isolate;opacity:0.7000000000000001"></rect><rect x="166.45" y="388.19" width="11.95" height="3.97" style="isolation:isolate;opacity:0.2"></rect></g></svg>
